<svg width="38" height="38" viewBox="0 0 38 38" fill="none" xmlns="http://www.w3.org/2000/svg">
<rect width="37.1326" height="37.1326" transform="matrix(-1 0 0 1 37.1328 0)" fill="#004556"/>
<path d="M7.71036 17.9602L12.6445 13.026C12.8217 12.8191 13.1334 12.7949 13.3403 12.9722C13.5473 13.1494 13.5714 13.4611 13.3942 13.668C13.3776 13.6875 13.3598 13.7053 13.3403 13.7219L9.25005 17.8173H28.7843C29.0569 17.8173 29.2778 18.0382 29.2778 18.3108C29.2778 18.5835 29.0569 18.8044 28.7843 18.8044H9.24963L13.3399 22.8947C13.5468 23.0719 13.571 23.3836 13.3938 23.5905C13.2165 23.7975 12.9048 23.8216 12.6979 23.6444C12.6788 23.6279 12.6606 23.6101 12.6441 23.5905L7.70994 18.6564C7.5187 18.4639 7.5187 18.1531 7.70994 17.9606L7.71036 17.9602Z" fill="white"/>
</svg>
