<svg width="28" height="30" viewBox="0 0 28 30" fill="none" xmlns="http://www.w3.org/2000/svg">
<path d="M27.7521 7.48754C27.5729 4.5418 25.12 2.2401 22.1575 2.2401H20.7182V1.12005C20.7182 0.504023 20.2142 0 19.5982 0C18.9821 0 18.4781 0.504023 18.4781 1.12005V2.2401H9.5177V1.12005C9.5177 0.504023 9.01368 0 8.39765 0C7.78162 0 7.2776 0.504023 7.2776 1.12005V2.2401H5.83833C2.8758 2.2401 0.417289 4.5474 0.243681 7.48754C-0.0867339 13.0206 -0.0811337 18.6376 0.260482 24.1763C0.43409 26.9876 2.69099 29.2389 5.50232 29.4181C8.31924 29.5917 11.1586 29.6813 13.9979 29.6813C16.8372 29.6813 19.6766 29.5917 22.4935 29.4181C25.3048 29.2445 27.5561 26.9932 27.7353 24.1763C28.0825 18.6432 28.0881 13.0262 27.7521 7.48754ZM25.4952 24.0363C25.3888 25.722 24.0392 27.0772 22.3535 27.178C16.8092 27.5252 11.1866 27.5252 5.63672 27.178C3.95105 27.0716 2.59579 25.722 2.49498 24.0363C2.23177 19.7801 2.17577 15.4735 2.31577 11.2005H25.6744C25.8144 15.4791 25.7584 19.7801 25.4952 24.0363ZM8.39765 6.7203C9.01368 6.7203 9.5177 6.21628 9.5177 5.60025V4.4802H18.4781V5.60025C18.4781 6.21628 18.9821 6.7203 19.5982 6.7203C20.2142 6.7203 20.7182 6.21628 20.7182 5.60025V4.4802H22.1575C23.9327 4.4802 25.4112 5.86346 25.5176 7.62194C25.5456 8.06436 25.5568 8.51238 25.5792 8.9604H2.41658C2.43898 8.51238 2.45018 8.06996 2.47818 7.62194C2.58459 5.85786 4.05745 4.4802 5.83833 4.4802H7.2776V5.60025C7.2776 6.21628 7.78162 6.7203 8.39765 6.7203Z" fill="white"/>
<path d="M8.39785 17.9208C9.32573 17.9208 10.0779 17.1686 10.0779 16.2407C10.0779 15.3129 9.32573 14.5607 8.39785 14.5607C7.46997 14.5607 6.71777 15.3129 6.71777 16.2407C6.71777 17.1686 7.46997 17.9208 8.39785 17.9208Z" fill="white"/>
<path d="M13.9979 17.9208C14.9258 17.9208 15.678 17.1686 15.678 16.2407C15.678 15.3129 14.9258 14.5607 13.9979 14.5607C13.0701 14.5607 12.3179 15.3129 12.3179 16.2407C12.3179 17.1686 13.0701 17.9208 13.9979 17.9208Z" fill="white"/>
<path d="M8.39785 23.5211C9.32573 23.5211 10.0779 22.7689 10.0779 21.841C10.0779 20.9131 9.32573 20.1609 8.39785 20.1609C7.46997 20.1609 6.71777 20.9131 6.71777 21.841C6.71777 22.7689 7.46997 23.5211 8.39785 23.5211Z" fill="white"/>
<path d="M19.598 17.9208C20.5259 17.9208 21.2781 17.1686 21.2781 16.2407C21.2781 15.3129 20.5259 14.5607 19.598 14.5607C18.6702 14.5607 17.918 15.3129 17.918 16.2407C17.918 17.1686 18.6702 17.9208 19.598 17.9208Z" fill="white"/>
<path d="M19.598 23.5211C20.5259 23.5211 21.2781 22.7689 21.2781 21.841C21.2781 20.9131 20.5259 20.1609 19.598 20.1609C18.6702 20.1609 17.918 20.9131 17.918 21.841C17.918 22.7689 18.6702 23.5211 19.598 23.5211Z" fill="white"/>
<path d="M13.9979 23.5211C14.9258 23.5211 15.678 22.7689 15.678 21.841C15.678 20.9131 14.9258 20.1609 13.9979 20.1609C13.0701 20.1609 12.3179 20.9131 12.3179 21.841C12.3179 22.7689 13.0701 23.5211 13.9979 23.5211Z" fill="white"/>
</svg>
