<svg width="39" height="39" viewBox="0 0 39 39" fill="none" xmlns="http://www.w3.org/2000/svg">
<path d="M19.2623 38.5247C29.9006 38.5247 38.5247 29.9006 38.5247 19.2623C38.5247 8.62404 29.9006 0 19.2623 0C8.62404 0 0 8.62404 0 19.2623C0 29.9006 8.62404 38.5247 19.2623 38.5247Z" fill="#121212"/>
<path d="M17.2549 16.7826V15.8407C16.9404 15.7981 16.6193 15.7703 16.2933 15.7703C12.3569 15.7719 9.1543 18.9745 9.1543 22.9109C9.1543 25.3255 10.3616 27.4633 12.2012 28.7558C11.0136 27.4797 10.3075 25.7711 10.3075 23.8954C10.3075 20.0147 13.3954 16.8727 17.2549 16.7826Z" fill="#25F4EE"/>
<path d="M17.4232 27.1766C19.1793 27.1766 20.6324 25.7596 20.6979 24.0183L20.7126 8.49696H23.5269L23.522 8.47402C23.4631 8.15458 23.4303 7.82532 23.4303 7.4895H19.5512L19.5446 23.0338C19.4791 24.7751 18.0474 26.1708 16.2913 26.1708C15.7458 26.1708 15.2314 26.0348 14.7793 25.7957C15.3723 26.6164 16.3339 27.175 17.4216 27.175L17.4232 27.1766Z" fill="#25F4EE"/>
<path d="M28.8285 13.7964V12.8856C27.7457 12.8856 26.7366 12.5629 25.8896 12.0125C26.6432 12.8774 27.667 13.5474 28.8285 13.7964Z" fill="#25F4EE"/>
<path d="M25.8893 12.0124C25.0637 11.0639 24.5625 9.8271 24.5625 8.474H23.5059C23.7794 9.9516 24.6739 11.2195 25.8893 12.0124Z" fill="#FE2C55"/>
<path d="M16.2929 19.6216C14.4959 19.6216 13.0117 21.1139 13.0117 22.9109C13.0117 24.1625 13.744 25.2502 14.7809 25.7973C14.3943 25.2617 14.1633 24.6064 14.1633 23.8955C14.1633 22.0984 15.6262 20.6356 17.4232 20.6356C17.759 20.6356 18.0801 20.6913 18.3848 20.7863V16.8269C18.0703 16.7843 17.7492 16.7565 17.4232 16.7565C17.3659 16.7565 17.3102 16.7597 17.2545 16.7614H17.2397L17.2299 19.7592C16.9252 19.6642 16.6287 19.6216 16.2929 19.6216Z" fill="#FE2C55"/>
<path d="M28.8282 13.7505L28.8102 13.7472V16.7417C26.7986 16.7417 24.9295 16.0799 23.4077 14.9873V22.9109C23.4077 26.8474 20.2297 30.0303 16.2932 30.0303C14.7714 30.0303 13.361 29.5699 12.2012 28.7558C13.5051 30.1564 15.3628 31.0344 17.4235 31.0344C21.36 31.0344 24.5625 27.8319 24.5625 23.8954V16.0127C26.0844 17.1054 27.9469 17.7475 29.9586 17.7475V13.8684C29.5703 13.8684 29.1936 13.8258 28.8282 13.7488V13.7505Z" fill="#FE2C55"/>
<path d="M23.4322 22.9109V15.0282C24.954 16.1209 26.8166 16.763 28.8282 16.763V13.7488C27.6667 13.4998 26.6429 12.8757 25.8894 12.0108C24.6739 11.2179 23.7975 9.95001 23.5239 8.47241H20.685L20.6785 24.0167C20.6129 25.758 19.1812 27.1537 17.4251 27.1537C16.3374 27.1537 15.3742 26.6164 14.7828 25.7957C13.7442 25.2502 13.0349 24.1625 13.0349 22.9093C13.0349 21.1123 14.4978 19.6494 16.2948 19.6494C16.6306 19.6494 16.9517 19.7051 17.2564 19.8001V16.7597C13.397 16.8498 10.2861 20.0147 10.2861 23.8938C10.2861 25.7711 11.0151 27.4797 12.2028 28.7542C13.3626 29.5683 14.773 30.0483 16.2948 30.0483C20.2313 30.0483 23.4338 26.8457 23.4338 22.9093L23.4322 22.9109Z" fill="white"/>
</svg>
