<svg width="34" height="34" viewBox="0 0 34 34" fill="none" xmlns="http://www.w3.org/2000/svg">
<circle cx="17" cy="17" r="17" fill="#007656"/>
<path d="M24.0735 19.8376C23.045 18.9618 22.0032 18.4243 20.988 19.3068L20.3842 19.8376C19.9396 20.2225 19.1168 22.0207 15.9318 18.3579C12.7468 14.6952 14.6445 14.1245 15.0891 13.7463L15.6996 13.2155C16.7081 12.3396 16.3299 11.2315 15.6 10.0902L15.1621 9.40008C14.4189 8.25215 13.6227 7.50898 12.6141 8.38486L12.07 8.86261C11.6188 9.18775 10.3713 10.2494 10.0661 12.26C9.70111 14.6753 10.849 17.4356 13.4899 20.4746C16.1242 23.507 18.7054 25.0332 21.1472 25.0066C23.1777 24.9867 24.4052 23.8985 24.7901 23.5004L25.3408 23.0226C26.3494 22.1468 25.7257 21.251 24.6972 20.3751L24.0801 19.8443L24.0735 19.8376Z" fill="white"/>
</svg>
