<svg width="23" height="24" viewBox="0 0 23 24" fill="none" xmlns="http://www.w3.org/2000/svg">
<path d="M19.7869 16.6423C18.3409 15.4108 16.8762 14.6551 15.4488 15.8959L14.5999 16.6423C13.9748 17.1834 12.818 19.7116 8.33994 14.5618C3.8619 9.41208 6.53007 8.60977 7.15513 8.078L8.01342 7.33166C9.43147 6.1002 8.8997 4.54221 7.87348 2.93758L7.25775 1.96734C6.21287 0.353374 5.09336 -0.691503 3.67532 0.539959L2.91032 1.21167C2.27593 1.6688 0.522027 3.16148 0.0928814 5.98825C-0.420228 9.3841 1.19373 13.2651 4.90678 17.5379C8.61049 21.8013 12.2396 23.9471 15.6727 23.9097C18.5275 23.8818 20.2534 22.3518 20.7945 21.792L21.5688 21.1203C22.9869 19.8888 22.1099 18.6294 20.6639 17.3979L19.7963 16.6516L19.7869 16.6423Z" fill="#007656"/>
</svg>
