<svg width="33" height="25" viewBox="0 0 33 25" fill="none" xmlns="http://www.w3.org/2000/svg">
<path d="M32.634 3.24553C32.634 1.63356 31.3223 0.321899 29.7104 0.321899H3.78984C2.17787 0.321899 0.866211 1.63294 0.866211 3.24553V21.19C0.866211 22.8218 2.1909 24.1142 3.79046 24.1142H29.7091C31.341 24.1142 32.6334 22.7896 32.6334 21.19V3.24615C32.6334 3.24615 32.6334 3.24553 32.6334 3.24491L32.634 3.24553ZM3.78984 2.18329H29.7104C30.2961 2.18329 30.7726 2.65981 30.7726 3.24677C30.7726 3.55886 30.6175 3.848 30.3575 4.02173L17.3402 12.7008C16.9822 12.9397 16.5187 12.9397 16.1607 12.7008L3.1427 4.02173C2.88272 3.84862 2.72823 3.55886 2.72823 3.24553C2.72823 2.65981 3.20474 2.18329 3.79046 2.18329H3.78984ZM29.7091 22.2529H3.79046C3.21095 22.2529 2.72761 21.7844 2.72761 21.19V5.9824L15.1276 14.2495C15.6202 14.5783 16.1849 14.7421 16.7501 14.7421C17.3154 14.7421 17.88 14.5777 18.3726 14.2495L30.7726 5.9824V21.1906C30.7726 21.7701 30.3042 22.2535 29.7098 22.2535L29.7091 22.2529Z" fill="white"/>
</svg>
