<svg width="18" height="19" viewBox="0 0 18 19" fill="none" xmlns="http://www.w3.org/2000/svg">
<path d="M15.7235 13.2246C14.5744 12.246 13.4105 11.6455 12.2762 12.6315L11.6016 13.2246C11.1049 13.6546 10.1857 15.6636 6.62725 11.5714C3.06882 7.47921 5.18905 6.84166 5.68575 6.41909L6.36778 5.82602C7.49461 4.84745 7.07205 3.60942 6.25658 2.33431L5.76729 1.56332C4.93699 0.280805 4.04739 -0.549495 2.92055 0.429073L2.31265 0.962837C1.80854 1.32609 0.414823 2.51224 0.0738072 4.75849C-0.333929 7.45697 0.948588 10.5409 3.89912 13.9363C6.84223 17.3242 9.72604 19.0293 12.4542 18.9996C14.7227 18.9774 16.0941 17.7616 16.5241 17.3168L17.1394 16.783C18.2663 15.8044 17.5694 14.8036 16.4203 13.8251L15.7309 13.232L15.7235 13.2246Z" fill="#1B1B1B"/>
</svg>
