<svg width="39" height="39" viewBox="0 0 39 39" fill="none" xmlns="http://www.w3.org/2000/svg">
<path d="M19.2623 38.5247C29.9006 38.5247 38.5247 29.9006 38.5247 19.2623C38.5247 8.62404 29.9006 0 19.2623 0C8.62404 0 0 8.62404 0 19.2623C0 29.9006 8.62404 38.5247 19.2623 38.5247Z" fill="#4CC764"/>
<path d="M32.1073 18.1404C32.1073 12.3858 26.3382 7.70508 19.2485 7.70508C12.1587 7.70508 6.38965 12.387 6.38965 18.1404C6.38965 23.2991 10.9645 27.6187 17.144 28.4362C17.563 28.5265 18.1324 28.7119 18.2769 29.0706C18.4069 29.3957 18.3612 29.9049 18.3191 30.2336C18.3191 30.2336 18.1686 31.1413 18.1361 31.3339C18.0795 31.659 17.8772 32.6053 19.2497 32.0274C20.6221 31.4495 26.6548 27.6669 29.3528 24.562C31.2164 22.5178 32.1097 20.4447 32.1097 18.1417L32.1073 18.1404Z" fill="white"/>
<path d="M27.8302 21.463C27.9662 21.463 28.0758 21.3535 28.0758 21.2174V20.3049C28.0758 20.17 27.965 20.0593 27.8302 20.0593H25.3754V19.1118H27.8302C27.9662 19.1118 28.0758 19.0022 28.0758 18.8662V17.9549C28.0758 17.82 27.965 17.7093 27.8302 17.7093H25.3754V16.7618H27.8302C27.9662 16.7618 28.0758 16.6522 28.0758 16.5162V15.6048C28.0758 15.47 27.965 15.3593 27.8302 15.3593H24.2173C24.0812 15.3593 23.9717 15.4688 23.9717 15.6048V15.6097V21.2126V21.2174C23.9717 21.3535 24.0812 21.463 24.2173 21.463H27.8302Z" fill="#4CC764"/>
<path d="M14.4669 21.4631C14.6029 21.4631 14.7125 21.3536 14.7125 21.2175V20.305C14.7125 20.1701 14.6017 20.0594 14.4669 20.0594H12.0121V15.605C12.0121 15.4701 11.9014 15.3594 11.7665 15.3594H10.854C10.718 15.3594 10.6084 15.4689 10.6084 15.605V21.2127V21.2175C10.6084 21.3536 10.718 21.4631 10.854 21.4631H14.4669Z" fill="#4CC764"/>
<path d="M16.6413 15.3593H15.73C15.5943 15.3593 15.4844 15.4692 15.4844 15.6048V21.2162C15.4844 21.3518 15.5943 21.4618 15.73 21.4618H16.6413C16.777 21.4618 16.8869 21.3518 16.8869 21.2162V15.6048C16.8869 15.4692 16.777 15.3593 16.6413 15.3593Z" fill="#4CC764"/>
<path d="M22.8489 15.3593H21.9364C21.8003 15.3593 21.6908 15.4688 21.6908 15.6048V18.9384L19.1229 15.4712C19.1169 15.4628 19.1096 15.4544 19.1036 15.4459C19.1036 15.4459 19.1036 15.4459 19.1024 15.4447C19.0976 15.4399 19.0928 15.4339 19.088 15.4291C19.0868 15.4279 19.0843 15.4267 19.0831 15.4255C19.0783 15.4219 19.0747 15.4182 19.0699 15.4146C19.0675 15.4134 19.0651 15.411 19.0627 15.4098C19.0591 15.4062 19.0542 15.4038 19.0494 15.4014C19.047 15.4002 19.0446 15.3978 19.0422 15.3966C19.0374 15.3942 19.0338 15.3918 19.029 15.3894C19.0266 15.3881 19.0242 15.3869 19.0217 15.3857C19.0169 15.3833 19.0121 15.3809 19.0073 15.3797C19.0049 15.3797 19.0025 15.3773 18.9989 15.3773C18.9941 15.3761 18.9892 15.3737 18.9844 15.3725C18.982 15.3725 18.9784 15.3713 18.976 15.3701C18.9712 15.3701 18.9664 15.3677 18.9615 15.3665C18.9579 15.3665 18.9543 15.3665 18.9507 15.3653C18.9459 15.3653 18.9423 15.3641 18.9375 15.3641C18.9327 15.3641 18.929 15.3641 18.9242 15.3641C18.9218 15.3641 18.9182 15.3641 18.9158 15.3641H18.0093C17.8732 15.3641 17.7637 15.4736 17.7637 15.6097V21.2222C17.7637 21.3583 17.8732 21.4678 18.0093 21.4678H18.9218C19.0579 21.4678 19.1674 21.3583 19.1674 21.2222V17.8898L21.7377 21.3619C21.7558 21.3872 21.7775 21.4076 21.8015 21.4233C21.8015 21.4233 21.8039 21.4245 21.8039 21.4257C21.8088 21.4293 21.8136 21.4317 21.8196 21.4353C21.822 21.4365 21.8244 21.4377 21.8268 21.4389C21.8304 21.4413 21.8352 21.4425 21.8389 21.4449C21.8425 21.4474 21.8473 21.4486 21.8509 21.4498C21.8533 21.4498 21.8557 21.4522 21.8581 21.4522C21.8641 21.4546 21.869 21.4558 21.875 21.457C21.875 21.457 21.8774 21.457 21.8786 21.457C21.8991 21.4618 21.9207 21.4654 21.9424 21.4654H22.8489C22.985 21.4654 23.0945 21.3559 23.0945 21.2198V15.6073C23.0945 15.4712 22.985 15.3617 22.8489 15.3617V15.3593Z" fill="#4CC764"/>
</svg>
