<svg width="39" height="39" viewBox="0 0 39 39" fill="none" xmlns="http://www.w3.org/2000/svg">
<path d="M19.3116 38.5247C29.9499 38.5247 38.574 29.9006 38.574 19.2623C38.574 8.62404 29.9499 0 19.3116 0C8.67336 0 0.0493164 8.62404 0.0493164 19.2623C0.0493164 29.9006 8.67336 38.5247 19.3116 38.5247Z" fill="#4CC764"/>
<path d="M32.1566 18.1404C32.1566 12.3858 26.3875 7.70502 19.2978 7.70502C12.208 7.70502 6.43896 12.387 6.43896 18.1404C6.43896 23.2991 11.0138 27.6187 17.1934 28.4361C17.6123 28.5264 18.1818 28.7118 18.3262 29.0706C18.4563 29.3956 18.4105 29.9049 18.3684 30.2335C18.3684 30.2335 18.2179 31.1413 18.1854 31.3339C18.1288 31.6589 17.9265 32.6052 19.299 32.0273C20.6714 31.4495 26.7041 27.6668 29.4021 24.562C31.2657 22.5178 32.159 20.4446 32.159 18.1416L32.1566 18.1404Z" fill="white"/>
<path d="M27.8795 21.463C28.0155 21.463 28.1251 21.3534 28.1251 21.2174V20.3048C28.1251 20.17 28.0143 20.0592 27.8795 20.0592H25.4247V19.1118H27.8795C28.0155 19.1118 28.1251 19.0022 28.1251 18.8662V17.9548C28.1251 17.82 28.0143 17.7092 27.8795 17.7092H25.4247V16.7618H27.8795C28.0155 16.7618 28.1251 16.6522 28.1251 16.5162V15.6048C28.1251 15.47 28.0143 15.3592 27.8795 15.3592H24.2666C24.1306 15.3592 24.021 15.4688 24.021 15.6048V15.6097V21.2126V21.2174C24.021 21.3534 24.1306 21.463 24.2666 21.463H27.8795Z" fill="#4CC764"/>
<path d="M14.5162 21.4631C14.6522 21.4631 14.7618 21.3535 14.7618 21.2175V20.3049C14.7618 20.1701 14.651 20.0593 14.5162 20.0593H12.0615V15.6049C12.0615 15.4701 11.9507 15.3593 11.8159 15.3593H10.9033C10.7673 15.3593 10.6577 15.4689 10.6577 15.6049V21.2127V21.2175C10.6577 21.3535 10.7673 21.4631 10.9033 21.4631H14.5162Z" fill="#4CC764"/>
<path d="M16.6906 15.3592H15.7793C15.6436 15.3592 15.5337 15.4692 15.5337 15.6048V21.2162C15.5337 21.3518 15.6436 21.4618 15.7793 21.4618H16.6906C16.8263 21.4618 16.9362 21.3518 16.9362 21.2162V15.6048C16.9362 15.4692 16.8263 15.3592 16.6906 15.3592Z" fill="#4CC764"/>
<path d="M22.8987 15.3592H21.9862C21.8501 15.3592 21.7406 15.4688 21.7406 15.6048V18.9384L19.1727 15.4712C19.1667 15.4628 19.1594 15.4543 19.1534 15.4459C19.1534 15.4459 19.1534 15.4459 19.1522 15.4447C19.1474 15.4399 19.1426 15.4339 19.1378 15.4291C19.1366 15.4279 19.1342 15.4267 19.1329 15.4255C19.1281 15.4218 19.1245 15.4182 19.1197 15.4146C19.1173 15.4134 19.1149 15.411 19.1125 15.4098C19.1089 15.4062 19.1041 15.4038 19.0992 15.4014C19.0968 15.4002 19.0944 15.3978 19.092 15.3966C19.0872 15.3942 19.0836 15.3917 19.0788 15.3893C19.0764 15.3881 19.074 15.3869 19.0715 15.3857C19.0667 15.3833 19.0619 15.3809 19.0571 15.3797C19.0547 15.3797 19.0523 15.3773 19.0487 15.3773C19.0439 15.3761 19.039 15.3737 19.0342 15.3725C19.0318 15.3725 19.0282 15.3713 19.0258 15.3701C19.021 15.3701 19.0162 15.3677 19.0114 15.3665C19.0077 15.3665 19.0041 15.3665 19.0005 15.3653C18.9957 15.3653 18.9921 15.3641 18.9873 15.3641C18.9825 15.3641 18.9788 15.3641 18.974 15.3641C18.9716 15.3641 18.968 15.3641 18.9656 15.3641H18.0591C17.923 15.3641 17.8135 15.4736 17.8135 15.6097V21.2222C17.8135 21.3583 17.923 21.4678 18.0591 21.4678H18.9716C19.1077 21.4678 19.2172 21.3583 19.2172 21.2222V17.8898L21.7875 21.3619C21.8056 21.3871 21.8273 21.4076 21.8513 21.4233C21.8513 21.4233 21.8538 21.4245 21.8538 21.4257C21.8586 21.4293 21.8634 21.4317 21.8694 21.4353C21.8718 21.4365 21.8742 21.4377 21.8766 21.4389C21.8802 21.4413 21.8851 21.4425 21.8887 21.4449C21.8923 21.4473 21.8971 21.4485 21.9007 21.4497C21.9031 21.4497 21.9055 21.4522 21.9079 21.4522C21.9139 21.4546 21.9188 21.4558 21.9248 21.457C21.9248 21.457 21.9272 21.457 21.9284 21.457C21.9489 21.4618 21.9705 21.4654 21.9922 21.4654H22.8987C23.0348 21.4654 23.1443 21.3558 23.1443 21.2198V15.6072C23.1443 15.4712 23.0348 15.3616 22.8987 15.3616V15.3592Z" fill="#4CC764"/>
</svg>
