<svg width="39" height="39" viewBox="0 0 39 39" fill="none" xmlns="http://www.w3.org/2000/svg">
<path d="M19.2623 38.5247C29.9006 38.5247 38.5247 29.9006 38.5247 19.2623C38.5247 8.62404 29.9006 0 19.2623 0C8.62404 0 0 8.62404 0 19.2623C0 29.9006 8.62404 38.5247 19.2623 38.5247Z" fill="white"/>
<path d="M17.7878 17.0582V16.1528C17.4854 16.1119 17.1768 16.0851 16.8635 16.0851C13.0783 16.0867 10 19.165 10 22.9502C10 25.2727 11.1604 27.3275 12.9302 28.5698C11.7887 27.3432 11.1101 25.7009 11.1101 23.8965C11.1101 20.1664 14.0797 17.1464 17.7893 17.0582H17.7878Z" fill="#25F4EE"/>
<path d="M17.95 27.0535C19.6379 27.0535 21.0393 25.6883 21.1023 24.0146L21.107 9.0941L23.8137 9.07048C23.757 8.76345 23.7255 8.44696 23.7255 8.12418H19.9969L19.9906 23.0683C19.9277 24.742 18.5499 26.0851 16.862 26.0851C16.3377 26.0851 15.8433 25.9544 15.4087 25.7246C15.9787 26.5134 16.9045 27.0535 17.95 27.0535Z" fill="#25F4EE"/>
<path d="M28.9136 14.1673V13.3123C27.8728 13.3123 26.9013 13.0021 26.0889 12.4715C26.8132 13.3029 27.7973 13.928 28.9136 14.1673Z" fill="#25F4EE"/>
<path d="M26.0886 12.4715C25.295 11.5599 24.8132 10.3711 24.8132 9.07049H23.8149C24.0779 10.4907 24.9219 11.7094 26.0902 12.4715H26.0886Z" fill="#FE2C55"/>
<path d="M16.8635 19.8153C15.1346 19.8153 13.7285 21.2213 13.7285 22.9502C13.7285 24.1532 14.4119 25.2002 15.4086 25.7246C15.037 25.2097 14.815 24.5783 14.815 23.8965C14.815 22.1676 16.221 20.7616 17.9499 20.7616C18.2727 20.7616 18.5813 20.8151 18.8742 20.9064V17.0991C18.5718 17.0582 18.2632 17.0314 17.9499 17.0314C17.8948 17.0314 17.8413 17.0346 17.7877 17.0362V19.9601C17.4949 19.8688 17.1862 19.8153 16.8635 19.8153Z" fill="#FE2C55"/>
<path d="M28.9136 14.1421V17.0409C26.98 17.0409 25.1882 16.4221 23.7254 15.3719V22.9502C23.7254 26.7354 20.6472 29.8137 16.862 29.8137C15.3992 29.8137 14.0435 29.3523 12.9287 28.5698C14.1821 29.916 15.9692 30.76 17.9484 30.76C21.7336 30.76 24.8119 27.6817 24.8119 23.8965V16.3182C26.2746 17.3684 28.0665 17.9872 30 17.9872V14.2586C29.6269 14.2586 29.2632 14.2177 28.9136 14.1437V14.1421Z" fill="#FE2C55"/>
<path d="M23.727 22.9502V15.3719C25.1897 16.4221 26.9816 17.0409 28.9151 17.0409V14.1421C27.7988 13.9028 26.8147 13.3029 26.0904 12.4715C24.922 11.7094 24.0781 10.4907 23.8151 9.07049H21.0849L21.0786 24.0146C21.0156 25.6883 19.6378 27.0314 17.9499 27.0314C16.9044 27.0314 15.9786 26.515 15.4086 25.7246C14.4103 25.2002 13.7285 24.1532 13.7285 22.9502C13.7285 21.2213 15.1346 19.8153 16.8635 19.8153C17.1863 19.8153 17.4949 19.8688 17.7877 19.9601V17.0362C14.0781 17.1228 11.0864 20.1648 11.0864 23.8949C11.0864 25.6994 11.7871 27.3416 12.9302 28.5682C14.045 29.3508 15.4007 29.8121 16.8635 29.8121C20.6487 29.8121 23.727 26.7338 23.727 22.9486V22.9502Z" fill="black"/>
</svg>
