<svg width="37" height="31" viewBox="0 0 37 31" fill="none" xmlns="http://www.w3.org/2000/svg">
<path d="M28.2023 30.6943H9.5463C8.14715 30.6958 6.92751 29.7431 6.59051 28.3857L3.71504 16.8869C3.42686 15.7326 4.12919 14.5634 5.28348 14.2752C5.62599 14.1894 5.98424 14.1894 6.32674 14.2752L10.9187 15.4232C11.1187 15.4728 11.3297 15.4019 11.458 15.2405L16.4948 8.94472C17.6271 7.6306 19.6097 7.48257 20.9238 8.61481C21.0419 8.71638 21.1514 8.82661 21.2529 8.94393L26.2897 15.2413C26.4204 15.4012 26.6307 15.472 26.8307 15.4232L31.4202 14.2752C32.5745 13.987 33.7438 14.6886 34.0319 15.8429C34.1178 16.1854 34.1178 16.5436 34.0319 16.8861L31.1565 28.3865C30.8195 29.7439 29.5991 30.6966 28.2007 30.6943H28.2023ZM6.30785 16.868L9.0353 27.7747C9.09356 28.0101 9.30458 28.1755 9.54709 28.1747H28.203C28.4456 28.1747 28.6566 28.0101 28.7148 27.7755L31.4423 16.868L27.4432 17.868C26.2874 18.1554 25.0701 17.7444 24.3252 16.8161L19.2884 10.5187C19.0129 10.1762 18.7389 10.1754 18.4633 10.5195L13.4265 16.8153C12.6816 17.7436 11.4651 18.1546 10.3101 17.868L6.30942 16.868H6.30785Z" fill="white"/>
<path d="M3.33697 12.9496C4.7285 12.9496 5.85655 11.8215 5.85655 10.43C5.85655 9.03846 4.7285 7.9104 3.33697 7.9104C1.94544 7.9104 0.817383 9.03846 0.817383 10.43C0.817383 11.8215 1.94544 12.9496 3.33697 12.9496Z" fill="white"/>
<path d="M34.4122 12.9496C35.8037 12.9496 36.9317 11.8215 36.9317 10.43C36.9317 9.03846 35.8037 7.9104 34.4122 7.9104C33.0206 7.9104 31.8926 9.03846 31.8926 10.43C31.8926 11.8215 33.0206 12.9496 34.4122 12.9496Z" fill="white"/>
<path d="M18.8741 5.81023C20.2656 5.81023 21.3937 4.68217 21.3937 3.29064C21.3937 1.89911 20.2656 0.771057 18.8741 0.771057C17.4825 0.771057 16.3545 1.89911 16.3545 3.29064C16.3545 4.68217 17.4825 5.81023 18.8741 5.81023Z" fill="white"/>
</svg>
