<svg width="17" height="28" viewBox="0 0 17 28" fill="none" xmlns="http://www.w3.org/2000/svg">
<path d="M13.3978 9.01252C13.3941 9.00875 13.3941 9.01252 13.3978 9.01252C13.3895 9.0012 13.382 8.99365 13.3744 8.98611C13.3669 8.97781 13.3631 8.97026 13.3548 8.96271C13.2507 8.84348 13.2047 8.69633 13.2197 8.54993C13.2348 8.4073 13.3239 8.276 13.4552 8.18318L15.0097 7.09877L15.0135 7.09499C15.6927 6.63165 15.9319 5.77137 15.5923 4.99636C15.2105 4.12476 14.3155 3.72329 13.505 4.06665H13.4967L9.17566 5.95323C8.01428 6.46261 7.30417 7.60815 7.36605 8.87442C7.41586 9.83507 7.62036 10.7648 7.97579 11.6326C8.12974 12.0107 8.36971 12.3578 8.68213 12.6627L8.6859 12.6665C9.27225 13.2453 9.63901 13.9591 9.91294 15.0503C9.91294 15.0529 9.9142 15.0554 9.91671 15.0579V15.0617C10.8117 18.3451 9.79748 21.8013 7.26644 24.0893C6.65292 24.6448 6.5684 25.5715 7.07401 26.2423L7.14721 26.3389C7.42491 26.7057 7.81883 26.9328 8.26256 26.9758C8.31236 26.9796 8.35915 26.9834 8.40895 26.9834C8.80287 26.9834 9.19226 26.8332 9.49336 26.5593L9.50468 26.5479L9.51676 26.5359C10.5317 25.5254 11.4147 24.3837 12.1482 23.1521L11.9633 26.065C11.9127 26.9328 12.5806 27.689 13.4522 27.7546H13.4559L13.6182 27.7667H13.622C13.6605 27.7705 13.7027 27.7705 13.7412 27.7705C14.5554 27.7705 15.2422 27.1645 15.3342 26.3427L16.2104 18.3564V18.333C16.4534 15.2277 15.427 11.8243 13.3978 9.01176V9.01252ZM14.9064 18.2485L14.031 26.2197C14.0121 26.3774 13.8846 26.4861 13.7186 26.474L13.5608 26.4619C13.3948 26.4506 13.2718 26.3155 13.2794 26.1533L13.6846 19.7449V19.6634C13.6846 19.6521 13.6846 19.6408 13.6808 19.6249C13.6808 19.6136 13.6771 19.6061 13.6771 19.5985C13.6771 19.5864 13.6733 19.5789 13.6695 19.5676C13.6657 19.5555 13.6657 19.5442 13.662 19.5329C13.6582 19.5253 13.6582 19.517 13.6544 19.5057C13.6506 19.4944 13.6461 19.4823 13.6423 19.471C13.6386 19.4634 13.6348 19.4559 13.6348 19.4476C13.631 19.4363 13.6272 19.425 13.6197 19.4129C13.6159 19.4053 13.6114 19.3978 13.6076 19.3902C13.6039 19.3782 13.5963 19.3706 13.5925 19.3593C13.5888 19.3518 13.5812 19.3442 13.5767 19.3321C13.5729 19.3246 13.5654 19.317 13.5578 19.305C13.5503 19.2974 13.542 19.2861 13.5344 19.2786C13.5307 19.2703 13.5231 19.2627 13.5193 19.2589C13.5118 19.2514 13.5035 19.2401 13.4922 19.2318L13.4733 19.2129C13.465 19.2054 13.4537 19.1971 13.4461 19.1895C13.4386 19.1857 13.4303 19.1782 13.4227 19.1744C13.4152 19.1669 13.4039 19.1623 13.3956 19.1548C13.388 19.1473 13.3767 19.1435 13.3692 19.1359C13.3609 19.1322 13.3533 19.1276 13.3458 19.1201C13.3344 19.1125 13.3224 19.1088 13.3111 19.1012C13.3035 19.0974 13.296 19.0937 13.2877 19.0891C13.2763 19.0854 13.2613 19.0778 13.2492 19.0741C13.2454 19.0741 13.2454 19.0703 13.2416 19.0703C13.2379 19.0703 13.2303 19.0665 13.2265 19.0665C13.2145 19.0627 13.1994 19.059 13.1881 19.0544C13.176 19.0507 13.1684 19.0507 13.1571 19.0469C13.145 19.0431 13.1375 19.0431 13.1262 19.0431C13.1149 19.0431 13.099 19.0393 13.0877 19.0393H12.9986C12.9835 19.0393 12.9722 19.0431 12.9564 19.0431C12.9488 19.0431 12.9413 19.0431 12.9337 19.0469C12.9217 19.0507 12.9066 19.0507 12.8953 19.0544C12.8877 19.0544 12.8802 19.0582 12.8726 19.0582C12.8613 19.062 12.8492 19.0658 12.8379 19.0695C12.8304 19.0733 12.8183 19.0733 12.8107 19.0771C12.7994 19.0808 12.7873 19.0846 12.776 19.0884C12.7685 19.0922 12.7609 19.0967 12.7489 19.1005C12.7375 19.1042 12.7262 19.1118 12.7179 19.1156C12.7096 19.1193 12.7021 19.1231 12.6945 19.1269C12.6832 19.1352 12.6711 19.1427 12.6598 19.1503C12.6523 19.154 12.6485 19.1578 12.6402 19.1616C12.6289 19.1699 12.6175 19.1774 12.6092 19.1888C12.6055 19.1925 12.5972 19.1963 12.5934 19.2008C12.5821 19.2084 12.5745 19.2197 12.5625 19.2318C12.5587 19.2355 12.5511 19.2438 12.5474 19.2476C12.5398 19.2589 12.5277 19.2665 12.5202 19.2786C12.5164 19.2861 12.5089 19.2899 12.5051 19.2974C12.4968 19.305 12.4893 19.317 12.4855 19.3284C12.4817 19.3359 12.4742 19.3442 12.4704 19.3555C12.4666 19.3631 12.4583 19.3744 12.4545 19.3827C12.447 19.394 12.4432 19.4053 12.4395 19.4136C12.4357 19.4219 12.4319 19.4295 12.4281 19.437C12.4244 19.4484 12.4161 19.4642 12.4123 19.4755C12.4123 19.4793 12.4085 19.4831 12.4085 19.4831C11.6328 21.7711 10.3212 23.8818 8.61195 25.5903C8.5463 25.6484 8.46555 25.6748 8.39235 25.6673C8.36594 25.6635 8.28067 25.656 8.19992 25.5481L8.12672 25.4515C8.03013 25.3239 8.03843 25.1587 8.15011 25.0575C9.56203 23.7807 10.5921 22.1409 11.1287 20.3124C11.6652 18.4877 11.6841 16.5551 11.1868 14.7221C10.9634 13.8309 10.5808 12.6846 9.60882 11.7247L9.60505 11.7209L9.60128 11.7171C9.41639 11.5398 9.27754 11.3428 9.19226 11.1308C8.89494 10.398 8.72137 9.61472 8.67911 8.80047C8.6444 8.08658 9.04587 7.43458 9.70164 7.14933L14.0151 5.26274C14.231 5.17445 14.3894 5.50951 14.3894 5.51328C14.4551 5.65968 14.4626 5.87626 14.2702 6.00304L14.2664 6.00681L14.2626 6.01059L12.7081 7.09499C12.2719 7.39987 11.9867 7.87076 11.9248 8.38014C11.8629 8.88197 12.0176 9.38682 12.3451 9.78074C14.1894 12.3503 15.1229 15.4292 14.9109 18.2492L14.9064 18.2485Z" fill="white"/>
<path d="M6.22921 6.36987C5.9749 6.21593 5.64286 6.30044 5.48891 6.55476L0.627562 14.649C0.623789 14.6527 0.623789 14.6565 0.619261 14.6603C0.604169 14.6837 0.592849 14.7071 0.580775 14.7297L0.109884 15.5168C-0.0636823 15.8096 -0.0289692 16.1809 0.195157 16.4352L1.19429 17.5581C1.39125 17.7777 1.66141 17.8977 1.94666 17.8977C2.00477 17.8977 2.06665 17.8939 2.124 17.8826C2.46359 17.8207 2.75337 17.5973 2.88845 17.2924C2.89222 17.2887 2.89222 17.2849 2.89222 17.2811C2.89599 17.2736 2.89599 17.2698 2.89976 17.2623V17.2585C2.89976 17.256 2.90102 17.2532 2.90354 17.2502L2.98806 17.0147V17.011C3.23482 16.3703 3.01145 15.6526 2.44019 15.2595L1.78442 14.8082L6.40655 7.10715C6.5688 6.85661 6.48352 6.52457 6.22921 6.37063V6.36987Z" fill="white"/>
<path d="M8.84031 5.12321C10.2522 5.12321 11.4023 3.97315 11.4023 2.56123C11.4023 1.14931 10.2522 0 8.84031 0C7.42839 0 6.27833 1.15006 6.27833 2.56198C6.27456 3.9739 7.42386 5.12396 8.84031 5.12396V5.12321ZM8.84031 1.30778C9.5308 1.30778 10.0907 1.86696 10.0907 2.55821C10.0907 3.24945 9.53156 3.80864 8.84031 3.80864C8.14907 3.80864 7.58988 3.24945 7.58988 2.55821C7.58611 1.87149 8.14907 1.30778 8.84031 1.30778Z" fill="white"/>
</svg>
