<svg width="139" height="139" viewBox="0 0 139 139" fill="none" xmlns="http://www.w3.org/2000/svg">
<circle cx="69.5" cy="69.5" r="69.5" fill="white"/>
<path d="M70.4633 45.4432C70.4633 41.8173 67.4819 38.8769 63.8003 38.8769C60.1187 38.8769 57.1422 41.8157 57.1422 45.4432C57.1422 49.0707 60.1236 52.0389 63.8003 52.0389C67.4754 52.0389 70.4633 49.0887 70.4633 45.4432Z" fill="#007656"/>
<path d="M97.5992 51.8732C97.3384 50.4646 96.1823 49.6561 96.1134 49.5938L59.5923 25.5229C58.1459 24.5718 56.1763 24.9539 55.1924 26.379L53.3442 29.0602C52.6554 30.1114 52.9571 31.4775 53.9936 32.1581C55.0366 32.8485 56.1796 32.3286 56.8503 31.2774L58.2607 27.8041L90.9952 49.4462L64.9581 54.1478C63.1083 54.4463 61.7783 56.2961 62.1899 58.0968L67.8542 80.016L49.5346 107.498C48.4293 109.374 49.0968 111.791 50.9942 112.86C52.9129 113.951 55.3285 113.28 56.4321 111.407C56.4321 111.407 75.5488 82.6645 75.6209 82.4677L76.6163 86.4839L73.7301 109.413C73.3742 111.548 74.8387 113.562 77.0116 113.923C79.1763 114.287 81.2213 112.836 81.5902 110.702L84.5503 87.1677C84.6438 86.6003 84.5273 85.3523 84.3896 84.8161L77.8643 58.8364L94.8654 55.7746C96.6874 55.4532 97.9124 53.7034 97.5992 51.8716V51.8732Z" fill="#007656"/>
</svg>
