<svg width="62" height="62" viewBox="0 0 62 62" fill="none" xmlns="http://www.w3.org/2000/svg">
<circle cx="31.1816" cy="30.8262" r="30.8262" fill="#007656"/>
<path d="M44.7612 29.4082H32.7634V17.4097C32.7634 16.5822 32.0914 15.9102 31.2632 15.9102C30.435 15.9102 29.7637 16.5822 29.7637 17.4097V29.4082H17.7652C16.9377 29.4082 16.2656 30.0803 16.2656 30.9077C16.2656 31.7352 16.9377 32.408 17.7652 32.408H29.7637V44.4058C29.7637 45.2339 30.4357 45.906 31.2632 45.906C32.0907 45.906 32.7634 45.2339 32.7634 44.4058V32.408H44.7612C45.5894 32.408 46.2615 31.7359 46.2615 30.9077C46.2615 30.0796 45.5894 29.4082 44.7612 29.4082Z" fill="white"/>
</svg>
