<svg width="45" height="45" viewBox="0 0 45 45" fill="none" xmlns="http://www.w3.org/2000/svg">
<circle cx="22.2251" cy="22.3819" r="22.2251" fill="white"/>
<path d="M30.7869 26.7991C29.3409 25.5676 27.8762 24.8119 26.4488 26.0527L25.5999 26.7991C24.9748 27.3402 23.818 29.8684 19.3399 24.7186C14.8619 19.5689 17.5301 18.7666 18.1551 18.2348L19.0134 17.4885C20.4315 16.257 19.8997 14.699 18.8735 13.0944L18.2578 12.1241C17.2129 10.5102 16.0934 9.4653 14.6753 10.6968L13.9103 11.3685C13.2759 11.8256 11.522 13.3183 11.0929 16.145C10.5798 19.5409 12.1937 23.4219 15.9068 27.6947C19.6105 31.9581 23.2396 34.1039 26.6727 34.0665C29.5275 34.0386 31.2534 32.5086 31.7945 31.9488L32.5688 31.2771C33.9869 30.0456 33.1099 28.7862 31.6639 27.5547L30.7963 26.8084L30.7869 26.7991Z" fill="#007656"/>
</svg>
