<svg width="76" height="76" viewBox="0 0 76 76" fill="none" xmlns="http://www.w3.org/2000/svg">
<circle cx="38" cy="38" r="38" fill="#007656"/>
<path d="M37.4585 37.6408C40.4313 37.6408 43.0058 36.5746 45.1099 34.4705C47.2132 32.3672 48.2793 29.7936 48.2793 26.8199C48.2793 23.8462 47.2132 21.2735 45.1091 19.1694C43.0058 17.0661 40.4313 16 37.4585 16C34.4857 16 31.9112 17.0661 29.808 19.1694C27.7047 21.2726 26.6377 23.8471 26.6377 26.8199C26.6377 29.7928 27.7047 32.3672 29.808 34.4714C31.9121 36.5746 34.4857 37.6408 37.4585 37.6408Z" fill="white"/>
<path d="M56.392 50.5462C56.3315 49.6705 56.2086 48.7158 56.0279 47.7076C55.8454 46.6915 55.6111 45.7316 55.3294 44.8532C55.039 43.9459 54.6441 43.0501 54.1562 42.191C53.65 41.2995 53.055 40.5239 52.3873 39.8851C51.6888 39.2173 50.8342 38.6803 49.8462 38.2881C48.8608 37.8985 47.7692 37.7011 46.6013 37.7011C46.1424 37.7011 45.6993 37.8888 44.8429 38.4469C44.3156 38.7909 43.6987 39.1884 43.0108 39.628C42.422 40.0026 41.6253 40.3545 40.6399 40.6721C39.6791 40.9828 38.7033 41.1407 37.7408 41.1407C36.7782 41.1407 35.8024 40.9828 34.8408 40.6721C33.8571 40.3545 33.0595 40.0035 32.4716 39.628C31.7898 39.1928 31.173 38.7944 30.6377 38.446C29.7822 37.888 29.3382 37.7002 28.8793 37.7002C27.7114 37.7002 26.6198 37.8976 25.6353 38.2881C24.6473 38.6794 23.7927 39.2164 23.0933 39.8851C22.4256 40.5239 21.8307 41.2995 21.3244 42.1901C20.8365 43.0492 20.4417 43.9442 20.1512 44.8524C19.8704 45.7298 19.6353 46.6906 19.4536 47.7059C19.2729 48.7132 19.15 49.6679 19.0895 50.5453C19.0298 51.4052 19 52.2967 19 53.1979C19 55.5433 19.7458 57.4413 21.2156 58.8417C22.6678 60.2237 24.5885 60.9239 26.9252 60.9239H48.5572C50.893 60.9239 52.8137 60.2237 54.2659 58.8417C55.7365 57.4421 56.4815 55.5433 56.4815 53.1979C56.4815 52.2923 56.4508 51.4 56.3903 50.5444L56.392 50.5462Z" fill="white"/>
</svg>
