<svg width="186" height="268" viewBox="0 0 186 268" fill="none" xmlns="http://www.w3.org/2000/svg">
<g filter="url(#filter0_d_390_16228)">
<path d="M54.0596 106.854H61.1337V116.139H68.8613V106.854H75.9681V133.408H68.8613V122.656H61.1337V133.408H54.0596V106.854Z" fill="white"/>
<path d="M80.5752 120.158C80.5752 115.813 81.6208 112.447 83.6956 110.039C85.7705 107.632 88.6786 106.419 92.3872 106.419C96.0958 106.419 99.1345 107.614 101.193 109.985C103.252 112.356 104.281 115.687 104.281 119.959C104.281 123.054 103.823 125.606 102.925 127.597C102.026 129.588 100.719 131.127 99.0202 132.231C97.3211 133.335 95.1972 133.896 92.6649 133.896C90.1326 133.896 87.9434 133.426 86.2606 132.466C84.5779 131.507 83.2055 130.005 82.1436 127.941C81.0817 125.878 80.5752 123.289 80.5752 120.194V120.158ZM87.6493 120.194C87.6493 122.873 88.0741 124.81 88.94 125.968C89.7895 127.145 90.9658 127.724 92.4525 127.724C93.9392 127.724 95.1482 127.145 95.9814 126.004C96.8146 124.864 97.223 122.8 97.223 119.832C97.223 117.334 96.7819 115.506 95.9161 114.347C95.0502 113.189 93.8739 112.61 92.3872 112.61C90.9005 112.61 89.8222 113.189 88.9563 114.365C88.0904 115.542 87.6656 117.479 87.6656 120.176L87.6493 120.194Z" fill="white"/>
<path d="M120.405 123.796V118.275H131.335V129.606C129.244 131.253 127.398 132.394 125.781 132.991C124.179 133.588 122.268 133.896 120.062 133.896C117.35 133.896 115.128 133.353 113.413 132.285C111.698 131.217 110.374 129.606 109.427 127.488C108.479 125.371 108.005 122.927 108.005 120.176C108.005 117.28 108.528 114.763 109.557 112.609C110.587 110.474 112.09 108.844 114.083 107.722C115.635 106.871 117.726 106.437 120.34 106.437C122.954 106.437 124.768 106.709 126.009 107.234C127.267 107.758 128.313 108.591 129.13 109.713C129.947 110.836 130.584 112.247 130.992 113.967L124.163 115.379C123.885 114.383 123.412 113.605 122.742 113.08C122.072 112.555 121.206 112.284 120.177 112.284C118.625 112.284 117.383 112.917 116.468 114.166C115.553 115.415 115.079 117.388 115.079 120.103C115.079 122.981 115.537 125.027 116.468 126.258C117.399 127.488 118.69 128.104 120.356 128.104C121.141 128.104 121.909 127.977 122.627 127.706C123.346 127.434 124.163 126.982 125.094 126.348V123.85H120.356L120.405 123.796Z" fill="white"/>
<path d="M30.6318 227.442L31.6284 226.102L34.7489 228.944L32.3963 232.112C31.8571 232.166 31.2036 232.039 30.4358 231.768C29.6679 231.496 28.9981 231.08 28.4099 230.555C27.6584 229.867 27.1356 229.107 26.8252 228.238C26.5311 227.387 26.4821 226.501 26.6782 225.595C26.8742 224.69 27.2663 223.858 27.8218 223.098C28.4426 222.265 29.1451 221.668 29.9293 221.324C30.7135 220.962 31.5467 220.889 32.3963 221.088C33.0498 221.233 33.7196 221.631 34.4058 222.247C35.3043 223.061 35.8435 223.894 36.0395 224.763C36.2356 225.632 36.1376 226.501 35.7291 227.351L34.0627 226.338C34.2424 225.849 34.2914 225.378 34.1771 224.89C34.0627 224.419 33.8013 223.984 33.3765 223.604C32.7394 223.025 32.0695 222.79 31.367 222.898C30.6645 223.007 29.9783 223.496 29.3412 224.365C28.6387 225.306 28.3119 226.193 28.3283 227.007C28.3609 227.822 28.6713 228.51 29.2922 229.071C29.6026 229.342 29.9457 229.56 30.3541 229.704C30.7625 229.849 31.1383 229.922 31.4977 229.94L32.2492 228.926L30.5828 227.424L30.6318 227.442Z" fill="white"/>
<path d="M39.9763 233.27C40.4174 232.347 40.9075 231.641 41.463 231.152C41.8715 230.79 42.3289 230.519 42.819 230.338C43.3255 230.157 43.7993 230.084 44.2731 230.139C44.8939 230.193 45.5474 230.41 46.2172 230.809C47.4262 231.514 48.2104 232.492 48.5371 233.741C48.8639 234.99 48.6842 236.366 47.9817 237.85C47.2792 239.316 46.3806 240.257 45.2696 240.674C44.1587 241.09 42.9987 240.945 41.7898 240.239C40.5645 239.533 39.7966 238.556 39.4535 237.307C39.1268 236.058 39.3065 234.718 39.9926 233.252M41.7081 234.211C41.218 235.243 41.0709 236.148 41.2506 236.927C41.4303 237.705 41.8551 238.284 42.5086 238.682C43.1785 239.063 43.8319 239.117 44.5181 238.845C45.188 238.556 45.7761 237.886 46.2826 236.836C46.7727 235.786 46.9361 234.899 46.7727 234.139C46.6093 233.379 46.1682 232.818 45.4984 232.42C44.8122 232.021 44.1424 231.967 43.4725 232.239C42.8027 232.51 42.2309 233.18 41.7244 234.23" fill="white"/>
<path d="M52.9648 245.543L55.8076 235.841L57.5883 236.474L55.2194 244.547L59.6632 246.14L59.1731 247.787L52.9648 245.543Z" fill="white"/>
<path d="M66.5571 249.778L68.2235 239.66L74.4971 240.909L74.2031 242.628L69.7919 241.741L69.3998 244.131L73.2065 244.909L72.9287 246.611L69.1221 245.85L68.4033 250.158L66.5571 249.778Z" fill="white"/>
<path d="M89.1196 249.199L90.9494 249C91.0638 249.688 91.2762 250.176 91.6193 250.502C91.9623 250.828 92.4035 250.991 92.9753 250.991C93.5798 250.991 94.0372 250.846 94.3476 250.575C94.658 250.285 94.8051 249.959 94.8051 249.579C94.8051 249.326 94.7397 249.127 94.609 248.964C94.4783 248.801 94.2496 248.638 93.9392 248.511C93.7268 248.421 93.2203 248.276 92.4361 248.059C91.4395 247.787 90.7207 247.443 90.3286 247.027C89.7568 246.466 89.479 245.76 89.479 244.945C89.479 244.42 89.6097 243.932 89.8875 243.479C90.1652 243.027 90.541 242.683 91.0474 242.447C91.5539 242.212 92.1584 242.085 92.8772 242.085C94.0372 242.085 94.9194 242.375 95.5076 242.936C96.0957 243.497 96.4061 244.257 96.4388 245.199L94.56 245.289C94.4783 244.764 94.3149 244.384 94.0372 244.149C93.7758 243.914 93.3837 243.805 92.8446 243.805C92.3054 243.805 91.8643 243.932 91.5702 244.167C91.3742 244.33 91.2762 244.547 91.2762 244.801C91.2762 245.036 91.3742 245.253 91.5539 245.434C91.799 245.651 92.3708 245.887 93.2693 246.122C94.1842 246.357 94.8541 246.611 95.2952 246.864C95.7363 247.117 96.0794 247.461 96.3244 247.914C96.5695 248.366 96.7002 248.909 96.6839 249.561C96.6839 250.158 96.5368 250.701 96.2428 251.226C95.9487 251.751 95.5239 252.113 94.9848 252.367C94.4456 252.62 93.7595 252.747 92.9589 252.747C91.7826 252.747 90.8841 252.439 90.2469 251.842C89.6261 251.244 89.2503 250.358 89.1196 249.217" fill="white"/>
<path d="M106.388 251.806L105.571 243.298L102.826 243.624L102.663 241.886L109.999 241.017L110.178 242.755L107.434 243.081L108.267 251.588L106.388 251.806Z" fill="white"/>
<path d="M116.142 239.877L117.971 239.388L119.148 244.801C119.344 245.651 119.474 246.212 119.589 246.448C119.752 246.828 120.014 247.117 120.357 247.28C120.7 247.443 121.141 247.461 121.647 247.335C122.17 247.19 122.53 246.973 122.742 246.665C122.954 246.357 123.052 246.031 123.036 245.669C123.02 245.307 122.922 244.746 122.742 243.95L121.533 238.411L123.363 237.922L124.506 243.171C124.768 244.366 124.915 245.235 124.915 245.76C124.915 246.285 124.833 246.755 124.637 247.154C124.441 247.57 124.147 247.932 123.755 248.258C123.363 248.584 122.807 248.837 122.088 249.036C121.223 249.271 120.553 249.326 120.063 249.235C119.572 249.127 119.148 248.946 118.821 248.656C118.478 248.366 118.233 248.041 118.069 247.679C117.824 247.136 117.579 246.303 117.334 245.181L116.174 239.841L116.142 239.877Z" fill="white"/>
<path d="M129.571 235.714L132.724 234.211C133.426 233.868 133.998 233.687 134.423 233.614C134.995 233.542 135.534 233.614 136.04 233.868C136.563 234.121 137.02 234.501 137.445 235.008C137.87 235.515 138.246 236.221 138.589 237.108C138.883 237.886 139.063 238.61 139.112 239.244C139.161 240.04 139.079 240.728 138.834 241.343C138.654 241.814 138.36 242.248 137.919 242.665C137.592 242.972 137.102 243.28 136.465 243.588L133.214 245.126L129.554 235.66L129.571 235.714ZM131.923 236.492L134.341 242.755L135.632 242.14C136.106 241.904 136.449 241.723 136.645 241.56C136.89 241.343 137.069 241.108 137.184 240.836C137.298 240.565 137.331 240.185 137.282 239.714C137.233 239.244 137.069 238.628 136.792 237.904C136.514 237.18 136.236 236.637 135.975 236.293C135.713 235.949 135.419 235.732 135.125 235.605C134.831 235.479 134.504 235.46 134.161 235.533C133.9 235.587 133.41 235.786 132.707 236.112L131.939 236.474L131.923 236.492Z" fill="white"/>
<path d="M143.115 228.231L141.51 229.313L146.339 238.113L147.945 237.032L143.115 228.231Z" fill="white"/>
<path d="M150.597 229.071C149.993 228.274 149.584 227.496 149.388 226.754C149.241 226.211 149.192 225.632 149.241 225.052C149.274 224.473 149.404 223.948 149.617 223.496C149.895 222.88 150.336 222.301 150.907 221.758C151.953 220.781 153.064 220.364 154.24 220.491C155.417 220.636 156.495 221.342 157.459 222.627C158.423 223.894 158.864 225.179 158.782 226.482C158.7 227.786 158.145 228.926 157.099 229.885C156.037 230.863 154.926 231.297 153.767 231.152C152.607 231.008 151.545 230.32 150.597 229.071ZM152.035 227.641C152.705 228.528 153.407 229.035 154.126 229.161C154.845 229.27 155.498 229.071 156.07 228.528C156.642 228.003 156.936 227.333 156.969 226.537C156.985 225.74 156.658 224.89 155.956 223.966C155.27 223.061 154.583 222.554 153.897 222.446C153.195 222.337 152.558 222.554 151.969 223.098C151.381 223.641 151.071 224.31 151.054 225.107C151.038 225.885 151.365 226.736 152.051 227.641" fill="white"/>
<path d="M28.4097 38.1968L24.0312 29.2368L25.665 28.2594L27.3804 31.789L30.5826 29.8703L28.8671 26.3407L30.5009 25.3632L34.8793 34.3232L33.2456 35.3006L31.3341 31.3908L28.1319 33.3095L30.0434 37.2193L28.4097 38.1968Z" fill="white"/>
<path d="M41.3489 25.4356C41.0221 24.4582 40.8751 23.5893 40.9078 22.8291C40.9405 22.268 41.0548 21.7068 41.2672 21.1819C41.4796 20.657 41.741 20.2045 42.0841 19.8605C42.5415 19.3899 43.1133 18.9917 43.7995 18.7021C45.0575 18.1772 46.2338 18.1772 47.2794 18.7383C48.3413 19.2813 49.1255 20.3312 49.6646 21.8878C50.1874 23.4264 50.2201 24.784 49.7627 25.9787C49.3052 27.1552 48.4393 28.0241 47.1814 28.549C45.907 29.092 44.7471 29.0739 43.6851 28.549C42.6395 28.006 41.8553 26.9742 41.3325 25.4537L41.3489 25.4356ZM43.1133 24.6211C43.4891 25.7071 43.9792 26.4131 44.6327 26.7932C45.2699 27.1552 45.9397 27.1914 46.6259 26.9018C47.3121 26.6122 47.7858 26.0873 48.0472 25.3632C48.3086 24.6211 48.2433 23.6979 47.8675 22.5938C47.4918 21.5077 47.0016 20.7837 46.3808 20.4217C45.76 20.0597 45.1065 20.0416 44.3876 20.3312C43.6688 20.6389 43.195 21.1457 42.9336 21.8697C42.6886 22.5938 42.7376 23.5169 43.1133 24.603V24.6211Z" fill="white"/>
<path d="M59.7941 23.8427L57.7192 13.9234L61.5259 12.946C62.4734 12.6926 63.1923 12.6021 63.6661 12.6745C64.1399 12.7469 64.5483 12.9641 64.9077 13.3623C65.2671 13.7424 65.4959 14.2311 65.6266 14.8285C65.7899 15.5706 65.7082 16.2403 65.4142 16.8196C65.1201 17.3988 64.5973 17.8694 63.8294 18.1952C64.2706 18.34 64.6463 18.5392 64.9731 18.7745C65.2835 19.0098 65.7409 19.4623 66.3454 20.1139L67.8485 21.7611L65.6919 22.3222L63.9275 20.4941C63.3066 19.8424 62.8819 19.4442 62.6695 19.2813C62.4571 19.1184 62.2447 19.0279 62.0487 19.0098C61.8363 18.9917 61.5259 19.0098 61.1174 19.1365L60.758 19.227L61.6239 23.3721L59.8104 23.8427H59.7941ZM60.3986 17.6522L61.7383 17.3083C62.6041 17.0911 63.1433 16.9101 63.3393 16.7653C63.5354 16.6205 63.6824 16.4395 63.7641 16.2222C63.8458 15.9869 63.8621 15.7335 63.7968 15.4258C63.7314 15.1 63.5844 14.8466 63.3883 14.6837C63.1923 14.5208 62.9309 14.4484 62.6205 14.4665C62.4734 14.4665 62.0323 14.5751 61.2971 14.7742L59.8921 15.1362L60.4149 17.6522H60.3986Z" fill="white"/>
<path d="M75.4128 17.073L77.1935 16.6748C77.3569 17.3264 77.6346 17.7971 77.9941 18.0686C78.3535 18.3401 78.8109 18.4487 79.3828 18.3944C79.9709 18.322 80.412 18.141 80.6898 17.8333C80.9675 17.5255 81.0818 17.1816 81.0492 16.8015C81.0328 16.5662 80.9512 16.3671 80.8041 16.2042C80.6571 16.0594 80.4284 15.9327 80.1016 15.8422C79.8729 15.7879 79.3664 15.6973 78.5822 15.5706C77.5693 15.4077 76.8504 15.1543 76.4093 14.8104C75.8049 14.3217 75.4618 13.67 75.3801 12.8736C75.3311 12.3668 75.4291 11.86 75.6415 11.3893C75.8702 10.9187 76.2133 10.5205 76.6871 10.2309C77.1609 9.94126 77.749 9.76025 78.4515 9.66975C79.5951 9.54304 80.4937 9.72405 81.1145 10.2128C81.7517 10.7015 82.1111 11.4074 82.2255 12.3487L80.3957 12.6383C80.265 12.1315 80.0689 11.7695 79.7912 11.5703C79.5135 11.3712 79.105 11.2988 78.5986 11.3531C78.0594 11.4074 77.651 11.5884 77.3732 11.86C77.1935 12.041 77.1119 12.2582 77.1445 12.5297C77.1609 12.765 77.2752 12.9641 77.4713 13.1089C77.7163 13.2899 78.3045 13.4528 79.2357 13.5976C80.1506 13.7243 80.8368 13.9054 81.2942 14.1045C81.7517 14.3036 82.1111 14.6113 82.4052 15.0276C82.6993 15.4439 82.8626 15.9508 82.9116 16.6024C82.9607 17.1816 82.8626 17.7427 82.6176 18.2858C82.3725 18.8288 81.9967 19.2451 81.4903 19.5528C80.9838 19.8606 80.3303 20.0597 79.5298 20.1502C78.3698 20.2769 77.4549 20.0778 76.7851 19.5528C76.1153 19.0279 75.6578 18.2134 75.4454 17.0911L75.4128 17.073Z" fill="white"/>
<path d="M92.0933 19.1727L92.3057 9L99.1184 9.18101L99.0857 10.9006L94.1354 10.7739L94.0864 13.0365L98.6936 13.1632L98.6609 14.8828L94.0538 14.7561L93.9884 17.5255L99.1184 17.6522L99.0857 19.3718L92.0933 19.1908V19.1727Z" fill="white"/>
<path d="M119.671 17.2359C119.9 16.2222 120.21 15.4258 120.635 14.8104C120.946 14.3578 121.321 13.9777 121.763 13.6881C122.204 13.3804 122.645 13.1994 123.119 13.1089C123.739 13.0003 124.409 13.0365 125.128 13.2356C126.435 13.5976 127.399 14.3216 127.987 15.4439C128.575 16.5661 128.69 17.9237 128.347 19.5347C127.987 21.1276 127.334 22.2679 126.337 22.9558C125.357 23.6436 124.213 23.8065 122.89 23.4626C121.567 23.1006 120.603 22.3765 120.014 21.2543C119.426 20.132 119.312 18.8107 119.655 17.2359H119.671ZM121.55 17.6703C121.305 18.7926 121.354 19.6976 121.681 20.4035C122.024 21.1095 122.547 21.562 123.266 21.743C123.984 21.9421 124.638 21.8154 125.226 21.3629C125.814 20.9104 126.239 20.1139 126.484 18.9736C126.729 17.8513 126.696 16.9282 126.37 16.2584C126.043 15.5706 125.504 15.1362 124.769 14.9371C124.017 14.738 123.364 14.8647 122.792 15.2991C122.22 15.7335 121.795 16.5299 121.55 17.6703Z" fill="white"/>
<path d="M135.698 27.4991L139.047 18.0142L140.73 18.7383L141.988 26.5941L144.226 20.2587L145.827 20.9466L142.478 30.4314L140.746 29.6712L139.488 21.9964L137.299 28.1869L135.698 27.4991Z" fill="white"/>
<path d="M150.957 34.8481L155.384 25.9244L161.364 29.5627L160.612 31.065L156.267 28.4223L155.286 30.3953L159.322 32.857L158.57 34.3594L154.519 31.8977L153.31 34.3232L157.802 37.0564L157.051 38.5588L150.924 34.83L150.957 34.8481Z" fill="white"/>
<path d="M92.6651 228.962C44.2083 230.392 8.8704 188.814 12.2196 132.358C14.1147 100.518 26.2861 64.2259 47.3941 42.2876C48.1619 41.4911 49.1912 41.0567 50.2531 41.0567H51.2171C54.2395 41.0567 56.2326 44.4778 55.04 47.5549C46.5936 69.2217 41.4309 95.4137 40.8591 115.705C39.5358 161.717 61.3626 190.299 92.6815 189.068C122.971 187.873 145.909 163.202 144.504 115.705C143.883 94.744 138.492 68.914 129.898 47.6092C128.657 44.5321 130.65 41.0567 133.688 41.0567C134.718 41.0567 135.714 41.4549 136.482 42.2152C158.162 63.6466 171.052 99.0701 173.143 132.358C176.787 190.371 139.26 227.605 92.6815 228.98" fill="white"/>
<path d="M41.2843 69.5114C41.2843 70.9414 40.2387 72.0998 38.9481 72.0998C37.6574 72.0998 36.6118 70.9414 36.6118 69.5114C36.6118 68.0814 37.6574 66.923 38.9481 66.923C40.2387 66.923 41.2843 68.0814 41.2843 69.5114Z" fill="#005D63"/>
<path d="M32.0041 100.844C32.0041 102.274 30.9585 103.432 29.6678 103.432C28.3771 103.432 27.3315 102.274 27.3315 100.844C27.3315 99.4141 28.3771 98.2556 29.6678 98.2556C30.9585 98.2556 32.0041 99.4141 32.0041 100.844Z" fill="#005D63"/>
<path d="M28.2794 132.177C28.2794 133.607 27.2338 134.765 25.9432 134.765C24.6525 134.765 23.6069 133.607 23.6069 132.177C23.6069 130.747 24.6525 129.588 25.9432 129.588C27.2338 129.588 28.2794 130.747 28.2794 132.177Z" fill="#005D63"/>
<path d="M34.3405 164.704C34.3405 166.134 33.2949 167.292 32.0042 167.292C30.7136 167.292 29.668 166.134 29.668 164.704C29.668 163.274 30.7136 162.116 32.0042 162.116C33.2949 162.116 34.3405 163.274 34.3405 164.704Z" fill="#005D63"/>
<path d="M144.095 69.5113C144.095 70.9413 145.141 72.0998 146.431 72.0998C147.722 72.0998 148.768 70.9413 148.768 69.5113C148.768 68.0814 147.722 66.9229 146.431 66.9229C145.141 66.9229 144.095 68.0814 144.095 69.5113Z" fill="#005D63"/>
<path d="M153.392 100.844C153.392 102.274 154.437 103.432 155.728 103.432C157.019 103.432 158.064 102.274 158.064 100.844C158.064 99.4141 157.019 98.2556 155.728 98.2556C154.437 98.2556 153.392 99.4141 153.392 100.844Z" fill="#005D63"/>
<path d="M157.1 132.177C157.1 133.607 158.145 134.765 159.436 134.765C160.727 134.765 161.772 133.607 161.772 132.177C161.772 130.747 160.727 129.588 159.436 129.588C158.145 129.588 157.1 130.747 157.1 132.177Z" fill="#005D63"/>
<path d="M151.055 164.704C151.055 166.134 152.1 167.292 153.391 167.292C154.682 167.292 155.727 166.134 155.727 164.704C155.727 163.274 154.682 162.116 153.391 162.116C152.1 162.116 151.055 163.274 151.055 164.704Z" fill="#005D63"/>
<path d="M92.6973 192.67L96.0629 204.182H106.993L98.154 211.296L101.536 222.808L92.6973 215.694L83.8588 222.808L87.2243 211.296L78.3857 204.182H89.3155L92.6973 192.67Z" fill="#005D63"/>
</g>
<defs>
<filter id="filter0_d_390_16228" x="0" y="0" width="185.388" height="267.747" filterUnits="userSpaceOnUse" color-interpolation-filters="sRGB">
<feFlood flood-opacity="0" result="BackgroundImageFix"/>
<feColorMatrix in="SourceAlpha" type="matrix" values="0 0 0 0 0 0 0 0 0 0 0 0 0 0 0 0 0 0 127 0" result="hardAlpha"/>
<feOffset dy="3"/>
<feGaussianBlur stdDeviation="6"/>
<feComposite in2="hardAlpha" operator="out"/>
<feColorMatrix type="matrix" values="0 0 0 0 0 0 0 0 0 0 0 0 0 0 0 0 0 0 0.33 0"/>
<feBlend mode="normal" in2="BackgroundImageFix" result="effect1_dropShadow_390_16228"/>
<feBlend mode="normal" in="SourceGraphic" in2="effect1_dropShadow_390_16228" result="shape"/>
</filter>
</defs>
</svg>
