<svg width="188" height="52" viewBox="0 0 188 52" fill="none" xmlns="http://www.w3.org/2000/svg">
<g clip-path="url(#clip0_39_3044)">
<path d="M4.64889 8.80546L6.45137 5.80746C8.29063 4.26248 9.72985 -0.629948 12.5669 1.71511C12.9256 2.42782 11.1737 6.19831 10.8656 7.30646C8.49295 15.8084 6.80543 28.2235 12.7049 35.6357C19.9102 44.6894 33.8931 41.9949 38.4913 31.7226C41.733 24.476 39.719 14.3002 37.2544 7.02138C36.8589 5.85345 35.2634 2.975 35.1806 2.09676C35.0979 1.21851 36.3991 0.556375 37.3326 1.11735C38.4407 1.77948 41.4295 5.48099 42.248 6.68571C52.4835 21.7355 51.9363 44.878 31.6998 50.5613C4.70867 58.1344 -7.36607 29.842 4.64889 8.80546ZM39.5673 9.2101C40.726 10.3504 42.3721 8.52037 41.1168 7.50878C40.0087 6.61214 38.6246 8.28127 39.5673 9.2101ZM6.90199 9.54116C7.73425 10.4976 9.94596 8.98019 8.48835 7.79846C7.20547 6.75468 6.28124 8.82845 6.90199 9.54116ZM42.4043 15.9832L42.6756 17.9006C43.5722 18.5489 44.9333 17.3028 44.3217 16.2545L42.4043 15.9832ZM4.28564 16.3142C3.43958 16.8476 4.58912 19.1881 6.00995 18.1857C7.14109 17.3902 5.6421 15.4636 4.28564 16.3142ZM44.0505 24.4668C43.1216 24.7702 43.4527 25.8968 44.4229 26.2968C46.138 27.0095 46.184 23.7632 44.0505 24.4668ZM3.86721 24.761C2.99816 24.9726 2.59812 26.5681 3.81203 26.7704C5.76165 27.0969 5.69268 24.3104 3.86721 24.761ZM42.156 33.2078C41.5215 33.6125 41.8203 35.2494 43.0894 35.1391C45.2828 34.9505 43.5493 32.3204 42.156 33.2078ZM5.59611 33.7872C4.34542 34.201 5.6237 36.6105 6.73186 35.2264C7.64689 34.0815 6.78244 33.3964 5.59611 33.7872ZM25.8188 45.1033L24.9221 42.1972L23.4737 44.9699L20.5539 45.1125L22.8438 47.0621L22.3058 50.0601L24.7796 48.5703L27.2534 49.7658L26.6556 46.754C26.72 46.4919 28.9685 45.8574 28.711 44.8182L25.8188 45.1033Z" fill="white"/>
<path d="M143.715 0.0505799C147.84 -0.390843 152.769 2.2485 154.319 6.17992C158.898 17.8224 144.032 26.2416 136.377 17.4224C130.744 10.9298 135.328 0.956416 143.72 0.0505799H143.715ZM142.538 2.36345C140.552 2.69912 138.253 4.70851 137.269 6.41442C132.85 14.0565 141.959 22.4758 148.884 17.7351C156.751 12.346 152.53 0.689723 142.543 2.36805L142.538 2.36345Z" fill="white"/>
<path d="M76.4901 38.1187L76.7844 48.6025L74.6095 48.6209L74.3014 47.7242C71.1011 49.1542 68.5123 49.8026 65.1695 48.4185C51.5543 42.7904 60.9943 22.6367 74.0209 29.6673C75.7268 30.5869 77.5983 31.6629 75.1842 33.0975C71.6299 29.6949 66.1167 29.5293 62.6865 33.1987C55.8628 40.4959 66.7007 51.9867 74.4531 44.9607V40.5925L74.0163 40.1557H68.917L69.0549 38.3808C69.1147 38.2704 69.7906 38.1141 69.9331 38.1141H76.4855L76.4901 38.1187Z" fill="white"/>
<path d="M72.2647 9.86763C73.2533 9.56415 72.4256 6.4696 72.398 5.65573C72.352 4.31306 72.4118 2.94741 72.4486 1.60935L72.8854 1.17253L74.6097 1.40703L75.0236 22.0987C74.1821 21.9148 73.2441 22.7517 72.6969 21.9562V11.9092H62.3556C61.9418 12.1667 61.9556 12.4886 61.905 12.9116C61.551 15.9372 62.5672 19.3076 62.2131 22.393H60.1715L59.8818 1.42083L61.9234 1.85765V9.86763H72.2647Z" fill="white"/>
<path d="M165.336 27.9246V47.7288H163.294V46.2758C162.011 46.6069 161.055 47.5633 159.662 47.738C151.44 48.7542 148.576 38.4865 155.229 35.1529C157.836 33.847 160.324 34.0309 162.701 35.6633L163.294 35.3506V27.9246H165.331H165.336ZM162.333 38.206C162.228 38.0773 160.788 36.9829 160.595 36.8864C154.935 34.1551 150.912 42.3352 156.167 45.0987C160.719 47.4897 165.336 41.9259 162.333 38.206Z" fill="white"/>
<path d="M184.464 8.80546C184.699 9.03077 186.018 10.8654 185.88 11.0356L175.534 16.1349C176.426 18.1673 179.075 18.7972 181.052 18.1489C182.142 17.7948 183.572 15.8866 184.345 16.0292C187.274 16.9166 182.896 19.7767 181.604 20.1537C176.597 21.6021 172.201 18.2225 172.628 12.93C173.084 7.28347 180.459 4.9614 184.469 8.80546H184.464ZM174.661 13.6519L182.519 10.0148C179.291 7.66052 175.015 9.80786 174.661 13.6519Z" fill="white"/>
<path d="M128.527 9.67911C128.822 9.9412 130.541 11.969 130.376 12.1943L119.887 17.0086C120.968 19.3766 124.049 19.8318 126.21 18.6639C127.663 17.8776 127.851 15.9878 129.801 17.5971C129.291 19.2663 127.58 20.5078 125.998 21.0733C118.894 23.6207 113.634 14.1577 119.588 9.42621C122.38 7.2099 125.874 7.34785 128.523 9.68371L128.527 9.67911ZM126.886 10.7459C123.538 9.2101 119.234 10.3642 119.313 14.5256C121.556 13.4726 124.357 12.5851 126.467 11.3528C126.743 11.1919 127.033 11.4954 126.886 10.7413V10.7459Z" fill="white"/>
<path d="M103.325 20.0249C102.962 19.395 104.203 18.411 104.599 18.411C104.741 18.411 106.466 19.349 107.247 19.4548C108.746 19.6571 112.678 19.6939 113.151 17.8178C113.754 15.436 108.282 15.8084 107.059 15.5693C100.52 14.2819 103.072 7.87203 109.565 8.11574C111.652 8.1939 117.359 9.74808 113.574 11.8724C111.459 9.89522 107.031 9.21469 105.404 12.0609C107.132 14.4014 110.204 13.2841 112.742 14.2589C116.991 15.8866 115.759 20.5721 111.754 21.3952C110.186 21.7171 107.422 21.8642 105.905 21.3814C105.592 21.2848 103.394 20.1583 103.325 20.0341V20.0249Z" fill="white"/>
<path d="M123.63 45.0573C123.943 41.8248 119.055 42.7766 116.866 42.165C113.629 41.2592 112.425 37.9026 115.607 36.0219C118.444 34.3436 123.286 34.6931 125.419 37.3922L124.076 38.6842C122.816 37.7922 121.065 36.9094 119.469 36.9461C118.49 36.9691 115.505 37.7554 115.846 39.0843C116.466 41.5213 126.417 38.8452 125.727 44.9653C125.382 48.0231 120.15 48.86 117.611 48.4093C116.604 48.23 113.285 47.3656 113.919 45.9815C114.701 44.2802 116.218 45.9815 117.487 46.1976C119.662 46.5655 121.846 46.3678 123.63 45.0481V45.0573Z" fill="white"/>
<path d="M180.123 34.1183C190.446 32.6377 190.92 48.8921 179.783 47.4115C172.647 46.4643 172.417 35.2218 180.123 34.1183ZM180.418 36.1553C175.314 36.8542 175.254 44.6159 180.064 45.3792C187.701 46.5931 187.936 35.1253 180.418 36.1553Z" fill="white"/>
<path d="M81.9529 8.77787C87.4983 7.89503 90.9101 11.5 90.1514 16.9764C89.3053 23.1103 79.3411 24.2185 77.203 17.45C76.1086 13.9784 78.21 9.37563 81.9483 8.78247L81.9529 8.77787ZM86.7993 12.0839C85.6774 10.985 85.0337 10.6309 83.3231 10.7229C78.679 10.9712 77.4559 16.9994 81.1574 19.326C83.107 20.5491 86.2292 19.841 87.5534 17.8868C88.8777 15.9326 88.4547 13.7163 86.7947 12.0885L86.7993 12.0839Z" fill="white"/>
<path d="M149.316 47.7288L147.293 47.9955L147.127 47.1402C143.908 48.6025 139.356 48.23 137.246 45.0849C135.609 42.6479 136.62 37.5347 136.207 34.6195L138.106 34.3896C138.432 34.4448 138.529 36.353 138.552 36.7898C138.644 38.6337 138.317 40.8316 138.565 42.5973C139.094 46.354 144.732 46.5517 146.985 44.3722V34.762C147.55 34.0815 148.792 34.1091 149.316 34.762V47.7242V47.7288Z" fill="white"/>
<path d="M84.5693 35.5667C92.0642 34.3804 95.7704 43.6365 89.6962 47.6782C83.4151 51.858 76.5501 44.3768 80.2884 38.5647C81.1942 37.1577 82.9185 35.8242 84.5693 35.5667ZM82.7116 38.8038C78.1824 43.218 85.0337 49.867 89.3191 45.2642C93.4115 40.8684 87.0109 34.6103 82.7116 38.8038Z" fill="white"/>
<path d="M157.179 7.68351C157.422 6.90182 159.193 7.07655 159.381 8.13873C163.395 6.04197 169.672 7.07196 170.959 11.9552C171.231 12.9806 171.263 17.7581 171.171 19.0225C171.134 19.5605 170.918 20.0801 170.84 20.6089L168.83 20.6411V12.3414C168.83 12.2081 168.384 11.3804 168.246 11.1781C166.904 9.21929 163.188 8.74108 161.087 9.55036C160.705 9.6975 159.216 11.0126 159.216 11.1735V20.494C159.216 21.0917 157.179 21.0917 157.179 20.494V7.67891V7.68351Z" fill="white"/>
<path d="M107.657 27.9246V29.9616C105.495 29.7546 104.213 31.0559 104.576 33.1849L107.372 33.6263V35.4977L104.93 35.5391L104.493 35.9759L104.718 48.1288L104.263 48.5565L102.415 48.6025C102.36 45.839 102.488 43.0571 102.428 40.289C102.419 39.774 102.194 39.3096 102.185 38.8452C102.157 37.852 102.801 36.6565 102.102 35.5161L100.382 35.7874C99.7386 33.8608 99.9547 33.2768 102.088 33.4194C102.497 30.0029 103.996 27.8326 107.661 27.9246H107.657Z" fill="white"/>
<path d="M131.544 27.6349V32.8768L133.585 32.8722L133.59 35.0379L131.544 35.2035V48.0185L129.507 48.3082L129.217 35.2035L127.474 35.1943L127.171 33.1757L129.212 33.1665V28.0717L129.695 27.6809L131.544 27.6349Z" fill="white"/>
<path d="M96.8832 28.2143L97.1729 48.8967L95.1129 48.768L94.5474 28.9454L95.0256 28.2556L96.8832 28.2143Z" fill="white"/>
<path d="M94.552 21.809L92.5242 21.7998L92.2207 8.7043L94.1381 8.48359L94.6945 9.28367C96.9476 7.59155 102.907 7.89503 101.831 11.9046C100.134 10.7413 97.9638 9.81705 95.9268 10.8057C95.6509 10.939 94.5474 11.9414 94.5474 12.0518V21.809H94.552Z" fill="white"/>
<path d="M171.456 47.7288H169.125V34.6241L170.996 34.3666L171.456 34.7666V47.7288Z" fill="white"/>
<path d="M171.451 31.7089H169.12V33.7504H171.451V31.7089Z" fill="white"/>
<path d="M25.8186 45.1033L28.7108 44.8182C28.9637 45.8574 26.7152 46.4919 26.6555 46.754L27.2532 49.7658L24.7794 48.5703L22.3056 50.0601L22.8436 47.0621L20.5537 45.1125L23.4735 44.9699L24.922 42.1972L25.8186 45.1033Z" fill="#004556"/>
<path d="M39.5673 9.21009C38.6246 8.28127 40.0087 6.61214 41.1168 7.50878C42.3721 8.52497 40.726 10.355 39.5673 9.21009Z" fill="#004556"/>
<path d="M4.28525 16.3142C5.64171 15.4636 7.1407 17.3902 6.00956 18.1857C4.58873 19.1881 3.43459 16.8476 4.28525 16.3142Z" fill="#004556"/>
<path d="M6.90161 9.54116C6.28086 8.82845 7.20509 6.75468 8.48797 7.79846C9.94559 8.98019 7.73388 10.4976 6.90161 9.54116Z" fill="#004556"/>
<path d="M42.4043 15.9832L44.3217 16.2545C44.9379 17.3028 43.5722 18.5489 42.6756 17.9006L42.4043 15.9832Z" fill="#004556"/>
<path d="M42.1561 33.2078C43.5447 32.3204 45.2782 34.9505 43.0895 35.1391C41.8204 35.2494 41.5215 33.6125 42.1561 33.2078Z" fill="#004556"/>
<path d="M3.8671 24.761C5.69716 24.315 5.76154 27.1015 3.81192 26.7704C2.59341 26.5635 2.99805 24.9726 3.8671 24.761Z" fill="#004556"/>
<path d="M44.0504 24.4668C46.184 23.7632 46.138 27.0141 44.4229 26.2968C43.4573 25.8922 43.1262 24.7702 44.0504 24.4668Z" fill="#004556"/>
<path d="M5.59593 33.7872C6.78226 33.3918 7.64671 34.0815 6.73168 35.2264C5.62352 36.6105 4.34984 34.2011 5.59593 33.7872Z" fill="#004556"/>
</g>
<defs>
<clipPath id="clip0_39_3044">
<rect width="188" height="51.8166" fill="white"/>
</clipPath>
</defs>
</svg>
