<svg width="162" height="220" viewBox="0 0 162 220" fill="none" xmlns="http://www.w3.org/2000/svg">
<path d="M42.0596 88.3204H49.1337V96.7015H56.8613V88.3204H63.9681V112.287H56.8613V102.583H49.1337V112.287H42.0596V88.3204Z" fill="white"/>
<path d="M68.5752 100.328C68.5752 96.4073 69.6208 93.3685 71.6956 91.1956C73.7705 89.0227 76.6786 87.9281 80.3872 87.9281C84.0958 87.9281 87.1345 89.0064 89.193 91.1466C91.2516 93.2868 92.2808 96.2929 92.2808 100.149C92.2808 102.942 91.8234 105.246 90.9248 107.043C90.0263 108.84 88.7193 110.229 87.0202 111.225C85.3211 112.222 83.1972 112.728 80.6649 112.728C78.1326 112.728 75.9434 112.304 74.2606 111.438C72.5779 110.572 71.2055 109.216 70.1436 107.353C69.0817 105.491 68.5752 103.155 68.5752 100.361V100.328ZM75.6493 100.361C75.6493 102.779 76.0741 104.527 76.94 105.573C77.7895 106.635 78.9658 107.157 80.4525 107.157C81.9392 107.157 83.1482 106.635 83.9814 105.605C84.8146 104.576 85.223 102.714 85.223 100.034C85.223 97.7796 84.7819 96.1295 83.9161 95.0839C83.0502 94.0383 81.8739 93.5155 80.3872 93.5155C78.9005 93.5155 77.8222 94.0383 76.9563 95.1003C76.0904 96.1622 75.6656 97.9103 75.6656 100.345L75.6493 100.361Z" fill="white"/>
<path d="M108.405 103.612V98.6292H119.335V108.856C117.244 110.343 115.398 111.372 113.781 111.912C112.179 112.451 110.268 112.728 108.062 112.728C105.35 112.728 103.128 112.238 101.413 111.274C99.6976 110.31 98.3743 108.856 97.4267 106.945C96.4792 105.033 96.0054 102.828 96.0054 100.345C96.0054 97.7306 96.5282 95.4597 97.5574 93.5156C98.5867 91.5877 100.09 90.1174 102.083 89.1044C103.635 88.3366 105.726 87.9445 108.34 87.9445C110.954 87.9445 112.768 88.1895 114.009 88.6633C115.267 89.1371 116.313 89.8886 117.13 90.9016C117.947 91.9145 118.584 93.1888 118.992 94.7409L112.163 96.0152C111.885 95.1166 111.412 94.4141 110.742 93.9403C110.072 93.4665 109.206 93.2215 108.177 93.2215C106.625 93.2215 105.383 93.7933 104.468 94.9206C103.553 96.0479 103.079 97.8286 103.079 100.279C103.079 102.877 103.537 104.723 104.468 105.834C105.399 106.945 106.69 107.5 108.356 107.5C109.141 107.5 109.909 107.386 110.627 107.141C111.346 106.896 112.163 106.487 113.094 105.916V103.661H108.356L108.405 103.612Z" fill="white"/>
<path d="M18.6318 197.16L19.6284 195.951L22.7489 198.516L20.3963 201.375C19.8571 201.424 19.2036 201.31 18.4358 201.065C17.6679 200.82 16.9981 200.444 16.4099 199.97C15.6584 199.349 15.1356 198.663 14.8252 197.879C14.5311 197.111 14.4821 196.311 14.6782 195.494C14.8742 194.677 15.2663 193.925 15.8218 193.239C16.4426 192.488 17.1451 191.949 17.9293 191.638C18.7135 191.311 19.5467 191.246 20.3963 191.426C21.0498 191.557 21.7196 191.916 22.4058 192.471C23.3043 193.207 23.8435 193.958 24.0395 194.742C24.2356 195.527 24.1376 196.311 23.7291 197.079L22.0627 196.164C22.2424 195.723 22.2914 195.298 22.1771 194.857C22.0627 194.432 21.8013 194.04 21.3765 193.697C20.7394 193.174 20.0695 192.962 19.367 193.06C18.6645 193.158 17.9783 193.599 17.3412 194.383C16.6387 195.232 16.3119 196.033 16.3283 196.768C16.3609 197.503 16.6713 198.124 17.2922 198.631C17.6026 198.876 17.9457 199.072 18.3541 199.202C18.7625 199.333 19.1383 199.398 19.4977 199.415L20.2492 198.5L18.5828 197.144L18.6318 197.16Z" fill="white"/>
<path d="M27.9763 202.421C28.4174 201.588 28.9075 200.951 29.463 200.509C29.8715 200.183 30.3289 199.938 30.819 199.774C31.3255 199.611 31.7993 199.546 32.2731 199.595C32.8939 199.644 33.5474 199.84 34.2172 200.199C35.4262 200.836 36.2104 201.718 36.5371 202.846C36.8639 203.973 36.6842 205.215 35.9817 206.554C35.2792 207.878 34.3806 208.727 33.2696 209.103C32.1587 209.479 30.9987 209.348 29.7898 208.711C28.5645 208.074 27.7966 207.191 27.4535 206.064C27.1268 204.937 27.3065 203.728 27.9926 202.405M29.7081 203.27C29.218 204.202 29.0709 205.019 29.2506 205.721C29.4303 206.424 29.8551 206.946 30.5086 207.306C31.1785 207.649 31.8319 207.698 32.5181 207.453C33.188 207.191 33.7761 206.587 34.2826 205.639C34.7727 204.692 34.9361 203.891 34.7727 203.205C34.6093 202.519 34.1682 202.012 33.4984 201.653C32.8122 201.294 32.1424 201.245 31.4725 201.49C30.8027 201.735 30.2309 202.339 29.7244 203.287" fill="white"/>
<path d="M40.9648 213.498L43.8076 204.741L45.5883 205.313L43.2194 212.599L47.6632 214.037L47.1731 215.524L40.9648 213.498Z" fill="white"/>
<path d="M54.5571 217.321L56.2235 208.188L62.4971 209.315L62.2031 210.867L57.7919 210.067L57.3998 212.223L61.2065 212.926L60.9287 214.462L57.1221 213.775L56.4033 217.664L54.5571 217.321Z" fill="white"/>
<path d="M77.1196 216.798L78.9494 216.618C79.0638 217.239 79.2762 217.68 79.6193 217.974C79.9623 218.268 80.4035 218.415 80.9753 218.415C81.5798 218.415 82.0372 218.285 82.3476 218.04C82.658 217.778 82.8051 217.484 82.8051 217.141C82.8051 216.912 82.7397 216.733 82.609 216.585C82.4783 216.438 82.2496 216.291 81.9392 216.177C81.7268 216.095 81.2203 215.965 80.4361 215.769C79.4395 215.524 78.7207 215.213 78.3286 214.837C77.7568 214.331 77.479 213.694 77.479 212.959C77.479 212.485 77.6097 212.044 77.8875 211.635C78.1652 211.227 78.541 210.916 79.0474 210.704C79.5539 210.492 80.1584 210.377 80.8772 210.377C82.0372 210.377 82.9194 210.639 83.5076 211.145C84.0957 211.652 84.4061 212.338 84.4388 213.187L82.56 213.269C82.4783 212.795 82.3149 212.452 82.0372 212.24C81.7758 212.027 81.3837 211.929 80.8446 211.929C80.3054 211.929 79.8643 212.044 79.5702 212.256C79.3742 212.403 79.2762 212.599 79.2762 212.828C79.2762 213.04 79.3742 213.236 79.5539 213.4C79.799 213.596 80.3708 213.808 81.2693 214.021C82.1842 214.233 82.8541 214.462 83.2952 214.69C83.7363 214.919 84.0794 215.229 84.3244 215.638C84.5695 216.046 84.7002 216.536 84.6839 217.125C84.6839 217.664 84.5368 218.154 84.2428 218.628C83.9487 219.101 83.5239 219.428 82.9848 219.657C82.4456 219.886 81.7595 220 80.9589 220C79.7826 220 78.8841 219.722 78.2469 219.183C77.6261 218.644 77.2503 217.843 77.1196 216.814" fill="white"/>
<path d="M94.388 219.15L93.5711 211.472L90.8265 211.766L90.6631 210.198L97.9986 209.413L98.1783 210.982L95.4336 211.276L96.2668 218.954L94.388 219.15Z" fill="white"/>
<path d="M104.142 208.384L105.971 207.943L107.148 212.828C107.344 213.596 107.474 214.102 107.589 214.315C107.752 214.658 108.014 214.919 108.357 215.066C108.7 215.213 109.141 215.229 109.647 215.115C110.17 214.984 110.53 214.788 110.742 214.511C110.954 214.233 111.052 213.939 111.036 213.612C111.02 213.285 110.922 212.779 110.742 212.06L109.533 207.061L111.363 206.62L112.506 211.358C112.768 212.436 112.915 213.22 112.915 213.694C112.915 214.168 112.833 214.592 112.637 214.952C112.441 215.328 112.147 215.654 111.755 215.948C111.363 216.242 110.807 216.471 110.088 216.651C109.223 216.863 108.553 216.912 108.063 216.831C107.572 216.733 107.148 216.569 106.821 216.308C106.478 216.046 106.233 215.752 106.069 215.426C105.824 214.935 105.579 214.184 105.334 213.171L104.174 208.351L104.142 208.384Z" fill="white"/>
<path d="M117.571 204.626L120.724 203.27C121.426 202.96 121.998 202.797 122.423 202.731C122.995 202.666 123.534 202.731 124.04 202.96C124.563 203.189 125.02 203.532 125.445 203.989C125.87 204.447 126.246 205.084 126.589 205.884C126.883 206.587 127.063 207.24 127.112 207.812C127.161 208.531 127.079 209.152 126.834 209.707C126.654 210.132 126.36 210.524 125.919 210.9C125.592 211.178 125.102 211.456 124.465 211.733L121.214 213.122L117.554 204.577L117.571 204.626ZM119.923 205.329L122.341 210.982L123.632 210.426C124.106 210.214 124.449 210.05 124.645 209.903C124.89 209.707 125.069 209.495 125.184 209.25C125.298 209.005 125.331 208.662 125.282 208.237C125.233 207.812 125.069 207.257 124.792 206.603C124.514 205.95 124.236 205.46 123.975 205.149C123.713 204.839 123.419 204.643 123.125 204.528C122.831 204.414 122.504 204.398 122.161 204.463C121.9 204.512 121.41 204.692 120.707 204.986L119.939 205.313L119.923 205.329Z" fill="white"/>
<path d="M131.115 197.873L129.51 198.849L134.339 206.792L135.945 205.816L131.115 197.873Z" fill="white"/>
<path d="M138.597 198.631C137.993 197.912 137.584 197.209 137.388 196.539C137.241 196.049 137.192 195.526 137.241 195.004C137.274 194.481 137.404 194.007 137.617 193.599C137.895 193.043 138.336 192.52 138.907 192.03C139.953 191.148 141.064 190.772 142.24 190.887C143.417 191.017 144.495 191.655 145.459 192.814C146.423 193.958 146.864 195.118 146.782 196.294C146.7 197.471 146.145 198.5 145.099 199.366C144.037 200.248 142.926 200.64 141.767 200.509C140.607 200.379 139.545 199.758 138.597 198.631ZM140.035 197.34C140.705 198.14 141.407 198.598 142.126 198.712C142.845 198.81 143.498 198.631 144.07 198.14C144.642 197.667 144.936 197.062 144.969 196.343C144.985 195.625 144.658 194.857 143.956 194.023C143.27 193.207 142.583 192.749 141.897 192.651C141.195 192.553 140.558 192.749 139.969 193.239C139.381 193.729 139.071 194.334 139.054 195.053C139.038 195.755 139.365 196.523 140.051 197.34" fill="white"/>
<path d="M16.4097 26.3523L12.0312 18.2652L13.665 17.383L15.3804 20.5688L18.5826 18.837L16.8671 15.6512L18.5009 14.769L22.8793 22.8561L21.2456 23.7383L19.3341 20.2094L16.1319 21.9412L18.0434 25.4701L16.4097 26.3523Z" fill="white"/>
<path d="M29.3489 14.8344C29.0221 13.9522 28.8751 13.168 28.9078 12.4818C28.9405 11.9754 29.0548 11.4689 29.2672 10.9951C29.4796 10.5213 29.741 10.1129 30.0841 9.80249C30.5415 9.37771 31.1133 9.01829 31.7995 8.75689C33.0575 8.2831 34.2338 8.2831 35.2794 8.78956C36.3413 9.27969 37.1255 10.2273 37.6646 11.6323C38.1874 13.021 38.2201 14.2463 37.7627 15.3245C37.3052 16.3865 36.4393 17.1707 35.1814 17.6445C33.907 18.1346 32.7471 18.1182 31.6851 17.6445C30.6395 17.1543 29.8553 16.2231 29.3325 14.8508L29.3489 14.8344ZM31.1133 14.0992C31.4891 15.0795 31.9792 15.7166 32.6327 16.0597C33.2699 16.3865 33.9397 16.4192 34.6259 16.1578C35.3121 15.8964 35.7858 15.4226 36.0472 14.7691C36.3086 14.0992 36.2433 13.266 35.8675 12.2694C35.4918 11.2892 35.0016 10.6357 34.3808 10.3089C33.76 9.9822 33.1065 9.96586 32.3876 10.2273C31.6688 10.505 31.195 10.9624 30.9336 11.6159C30.6886 12.2694 30.7376 13.1026 31.1133 14.0829V14.0992Z" fill="white"/>
<path d="M47.7941 13.3967L45.7192 4.44378L49.5259 3.56155C50.4734 3.33283 51.1923 3.25114 51.6661 3.31649C52.1399 3.38184 52.5483 3.57789 52.9077 3.93731C53.2671 4.2804 53.4959 4.72151 53.6266 5.26065C53.7899 5.93048 53.7082 6.53497 53.4142 7.05777C53.1201 7.58056 52.5973 8.00534 51.8294 8.29941C52.2706 8.43011 52.6463 8.60982 52.9731 8.82221C53.2835 9.0346 53.7409 9.44303 54.3454 10.0312L55.8485 11.5179L53.6919 12.0243L51.9275 10.3743C51.3066 9.78612 50.8819 9.42669 50.6695 9.27966C50.4571 9.13262 50.2447 9.05093 50.0487 9.0346C49.8363 9.01826 49.5259 9.0346 49.1174 9.14896L48.758 9.23065L49.6239 12.9719L47.8104 13.3967H47.7941ZM48.3986 7.80929L49.7383 7.49888C50.6041 7.30283 51.1433 7.13945 51.3393 7.00875C51.5354 6.87805 51.6824 6.71468 51.7641 6.51863C51.8458 6.30624 51.8621 6.07752 51.7968 5.79978C51.7314 5.50571 51.5844 5.27698 51.3883 5.12995C51.1923 4.98291 50.9309 4.91756 50.6205 4.9339C50.4734 4.9339 50.0323 5.03192 49.2971 5.21163L47.8921 5.53838L48.4149 7.80929H48.3986Z" fill="white"/>
<path d="M63.4128 7.28651L65.1935 6.92709C65.3569 7.51524 65.6346 7.94001 65.9941 8.18507C66.3535 8.43014 66.8109 8.52816 67.3828 8.47915C67.9709 8.4138 68.412 8.25042 68.6898 7.97269C68.9675 7.69495 69.0818 7.38454 69.0492 7.04145C69.0328 6.82907 68.9512 6.64935 68.8041 6.50232C68.6571 6.37162 68.4284 6.25726 68.1016 6.17557C67.8729 6.12656 67.3664 6.04487 66.5822 5.93051C65.5693 5.78347 64.8504 5.55475 64.4093 5.24433C63.8049 4.80322 63.4618 4.21508 63.3801 3.49623C63.3311 3.03878 63.4291 2.58133 63.6415 2.15656C63.8702 1.73178 64.2133 1.37236 64.6871 1.11096C65.1609 0.849563 65.749 0.686188 66.4515 0.604501C67.5951 0.490139 68.4937 0.653513 69.1145 1.09462C69.7517 1.53574 70.1111 2.1729 70.2255 3.02244L68.3957 3.28384C68.265 2.82639 68.0689 2.49964 67.7912 2.31993C67.5135 2.14022 67.105 2.07487 66.5986 2.12388C66.0594 2.1729 65.651 2.33627 65.3732 2.58133C65.1935 2.74471 65.1119 2.94076 65.1445 3.18582C65.1609 3.3982 65.2752 3.57792 65.4713 3.70862C65.7163 3.87199 66.3045 4.01903 67.2357 4.14973C68.1506 4.26409 68.8368 4.42746 69.2942 4.60717C69.7517 4.78689 70.1111 5.06462 70.4052 5.44038C70.6993 5.81614 70.8626 6.27359 70.9116 6.86174C70.9607 7.38454 70.8626 7.891 70.6176 8.38112C70.3725 8.87125 69.9967 9.24701 69.4903 9.52474C68.9838 9.80248 68.3303 9.98219 67.5298 10.0639C66.3698 10.1782 65.4549 9.99853 64.7851 9.52474C64.1153 9.05096 63.6578 8.31577 63.4454 7.30285L63.4128 7.28651Z" fill="white"/>
<path d="M80.0933 9.18164L80.3057 0L87.1184 0.163374L87.0857 1.71543L82.1354 1.60107L82.0864 3.64325L86.6936 3.75761L86.6609 5.30967L82.0538 5.19531L81.9884 7.69493L87.1184 7.8093L87.0857 9.36135L80.0933 9.19798V9.18164Z" fill="white"/>
<path d="M107.671 7.43353C107.9 6.51863 108.21 5.79978 108.635 5.24431C108.946 4.83587 109.321 4.49279 109.763 4.23139C110.204 3.95365 110.645 3.79028 111.119 3.70859C111.739 3.61056 112.409 3.64324 113.128 3.82295C114.435 4.1497 115.399 4.8032 115.987 5.81612C116.575 6.82904 116.69 8.05435 116.347 9.50838C115.987 10.9461 115.334 11.9753 114.337 12.5962C113.357 13.217 112.213 13.364 110.89 13.0536C109.567 12.7269 108.603 12.0734 108.014 11.0604C107.426 10.0475 107.312 8.85488 107.655 7.43353H107.671ZM109.55 7.82562C109.305 8.83855 109.354 9.65542 109.681 10.2926C110.024 10.9297 110.547 11.3382 111.266 11.5015C111.984 11.6813 112.638 11.5669 113.226 11.1585C113.814 10.75 114.239 10.0312 114.484 9.00192C114.729 7.989 114.696 7.15579 114.37 6.5513C114.043 5.93048 113.504 5.53838 112.769 5.35867C112.017 5.17896 111.364 5.29332 110.792 5.68542C110.22 6.07752 109.795 6.79636 109.55 7.82562Z" fill="white"/>
<path d="M123.698 16.6969L127.047 8.13603L128.73 8.78953L129.988 15.88L132.226 10.1619L133.827 10.7827L130.478 19.3435L128.746 18.6573L127.488 11.7303L125.299 17.3177L123.698 16.6969Z" fill="white"/>
<path d="M138.957 23.3299L143.384 15.2755L149.364 18.5593L148.612 19.9153L144.267 17.5301L143.286 19.3109L147.322 21.5328L146.57 22.8888L142.519 20.6669L141.31 22.8561L145.802 25.323L145.051 26.679L138.924 23.3135L138.957 23.3299Z" fill="white"/>
<path d="M80.6651 198.533C32.2083 199.823 -3.1296 162.296 0.219575 111.34C2.11472 82.6021 14.2861 49.8455 35.3941 30.0445C36.1619 29.3257 37.1912 28.9336 38.2531 28.9336H39.217C42.2395 28.9336 44.2326 32.0214 43.04 34.7987C34.5936 54.3547 29.4309 77.9949 28.8591 96.3092C27.5358 137.839 49.3626 163.636 80.6815 162.525C110.971 161.447 133.909 139.179 132.504 96.3092C131.883 77.3905 126.492 54.0769 117.898 34.8477C116.657 32.0704 118.65 28.9336 121.688 28.9336C122.718 28.9336 123.714 29.293 124.482 29.9792C146.162 49.3227 159.052 81.2951 161.143 111.34C164.787 163.701 127.26 197.307 80.6815 198.549" fill="white"/>
<path d="M29.2843 54.6161C29.2843 55.9068 28.2387 56.9524 26.9481 56.9524C25.6574 56.9524 24.6118 55.9068 24.6118 54.6161C24.6118 53.3254 25.6574 52.2798 26.9481 52.2798C28.2387 52.2798 29.2843 53.3254 29.2843 54.6161Z" fill="#005D63"/>
<path d="M20.0041 82.8962C20.0041 84.1869 18.9585 85.2325 17.6678 85.2325C16.3771 85.2325 15.3315 84.1869 15.3315 82.8962C15.3315 81.6056 16.3771 80.56 17.6678 80.56C18.9585 80.56 20.0041 81.6056 20.0041 82.8962Z" fill="#005D63"/>
<path d="M16.2794 111.176C16.2794 112.467 15.2338 113.513 13.9432 113.513C12.6525 113.513 11.6069 112.467 11.6069 111.176C11.6069 109.886 12.6525 108.84 13.9432 108.84C15.2338 108.84 16.2794 109.886 16.2794 111.176Z" fill="#005D63"/>
<path d="M22.3405 140.535C22.3405 141.825 21.2949 142.871 20.0042 142.871C18.7136 142.871 17.668 141.825 17.668 140.535C17.668 139.244 18.7136 138.198 20.0042 138.198C21.2949 138.198 22.3405 139.244 22.3405 140.535Z" fill="#005D63"/>
<path d="M132.095 54.6161C132.095 55.9067 133.141 56.9523 134.431 56.9523C135.722 56.9523 136.768 55.9067 136.768 54.6161C136.768 53.3254 135.722 52.2798 134.431 52.2798C133.141 52.2798 132.095 53.3254 132.095 54.6161Z" fill="#005D63"/>
<path d="M141.392 82.8962C141.392 84.1868 142.437 85.2324 143.728 85.2324C145.019 85.2324 146.064 84.1868 146.064 82.8962C146.064 81.6055 145.019 80.5599 143.728 80.5599C142.437 80.5599 141.392 81.6055 141.392 82.8962Z" fill="#005D63"/>
<path d="M145.1 111.176C145.1 112.467 146.145 113.513 147.436 113.513C148.727 113.513 149.772 112.467 149.772 111.176C149.772 109.886 148.727 108.84 147.436 108.84C146.145 108.84 145.1 109.886 145.1 111.176Z" fill="#005D63"/>
<path d="M139.055 140.535C139.055 141.825 140.1 142.871 141.391 142.871C142.682 142.871 143.727 141.825 143.727 140.535C143.727 139.244 142.682 138.198 141.391 138.198C140.1 138.198 139.055 139.244 139.055 140.535Z" fill="#005D63"/>
<path d="M80.6973 165.776L84.0629 176.167H94.9926L86.154 182.587L89.5359 192.978L80.6973 186.557L71.8588 192.978L75.2243 182.587L66.3857 176.167H77.3155L80.6973 165.776Z" fill="#005D63"/>
</svg>
